<?xml version="1.0" standalone="no"?>
<!DOCTYPE svg PUBLIC "-//W3C//DTD SVG 1.1//EN" "http://www.w3.org/Graphics/SVG/1.1/DTD/svg11.dtd" >
<svg>
<metadata>
Created by FontForge 20090914 at Tue Mar 18 09:04:34 2014
 By www-data
&#194;&#169;2014 www.cr8software.net  DEMO - not for commercial use.
</metadata>
<defs>
<font id="VFicons-Regular" horiz-adv-x="3072" >
  <font-face 
    font-family="VF icons"
    font-weight="400"
    font-stretch="normal"
    units-per-em="2048"
    panose-1="0 0 5 0 0 0 0 0 0 0"
    ascent="1638"
    descent="-410"
    x-height="1821"
    cap-height="2575"
    bbox="0 0 2976 2848"
    underline-thickness="102"
    underline-position="-102"
    unicode-range="U+000D-U+25FC"
  />
<missing-glyph horiz-adv-x="748" 
d="M68 0v1365h544v-1365h-544zM136 68h408v1229h-408v-1229z" />
    <glyph glyph-name=".notdef" horiz-adv-x="748" 
d="M68 0v1365h544v-1365h-544zM136 68h408v1229h-408v-1229z" />
    <glyph glyph-name="glyph1" horiz-adv-x="2048" 
 />
    <glyph glyph-name="glyph1" horiz-adv-x="2048" 
 />
    <glyph glyph-name="uni000D" unicode="&#xd;" horiz-adv-x="2048" 
 />
    <glyph glyph-name="A" unicode="A" 
d="M439 965v1133c0 131.333 47.667 245 143 341s208.333 144 339 144h579c35.333 0 66.666 -13.833 93.999 -41.5s41 -59.167 41 -94.5v-87c0 -35.333 -13.667 -66.833 -41 -94.5s-58.666 -41.5 -93.999 -41.5h-579c-34.667 0 -64.167 -12.333 -88.5 -37
s-36.5 -54.334 -36.5 -89v-1133c0 -34.667 12.167 -64.334 36.5 -89.001s53.833 -37 88.5 -37h1128c34.667 0 64.167 12.333 88.5 37s36.5 54.334 36.5 89.001v507c0 35.333 13.667 66.833 41 94.5s58.666 41.5 94 41.5h87c35.333 0 66.666 -13.833 94 -41.5
c27.333 -27.667 41 -59.167 41 -94.5v-507c0 -131.333 -47.667 -245 -143 -341s-208.333 -144 -339 -144h-1128c-130.667 0 -243.667 48 -339 144s-143 209.667 -143 341zM1224 1392c0 12.667 4.33105 23.333 12.998 32l884 888l-239 240c-16.667 16.667 -25 37 -25 61
s8.5 44.5 25.5 61.5s37.167 25.5 60.5 25.5h694c23.333 0 43.666 -8.5 61 -25.5c17.333 -17 26 -37.5 26 -61.5v-698c0 -24 -8.66699 -44.5 -26 -61.5s-37.666 -25.5 -61 -25.5c-23.333 0 -43.666 8.66699 -61 26l-238 240l-884 -888
c-9.33301 -9.33301 -19.666 -14 -30.999 -14s-21.666 4.66699 -30.999 14l-155 155c-8.66699 8.66699 -13 19 -13 31z" />
    <glyph glyph-name="B" unicode="B" 
d="M1022 1749c0 -17.333 7.33398 -34.333 22.001 -51l502 -502c13.333 -13.333 29.666 -20 48.999 -20c21.333 0 38.666 6.66699 51.999 20l501 502c15.333 17.333 23 34.333 23 51c0 19.333 -7.16699 36.166 -21.5 50.499s-31.833 21.5 -52.5 21.5h-1003
c-19.333 0 -36.166 -7.16699 -50.499 -21.5s-21.5 -31.166 -21.5 -50.499z" />
    <glyph glyph-name="C" unicode="C" 
d="M491 2210c0 78 17.6689 150.665 53.002 217.998l1 1c0.666992 0.666992 1 1.33398 1 2c5.33301 10.667 9.66602 18.667 12.999 24c1.33301 2 3.16602 5 5.49902 9s4.16602 7 5.49902 9c0 0.666992 2.66699 4.33398 8 11c3.33301 4.66699 10.666 14.334 21.999 29l2 2
c62.667 76.667 140.334 128.334 233.001 155l-84 -298l190 -235l281 72l111 309l15 -18l5.5 -8.5c2.33301 -3.66699 4.16602 -6.16699 5.49902 -7.5c2 -4 5.33301 -9.33301 10 -16l11 -16l1 -2c0.666992 -1.33301 1.33398 -2 2.00098 -2c42.667 -74.667 64 -154 64 -238
c0 -92 -24.167 -176.167 -72.5 -252.5s-112.166 -134.5 -191.499 -174.5c5.33301 -19.333 8 -38.333 8 -57v-1065c0 -62.667 -22 -116 -66 -160s-97.333 -66 -160 -66s-116 22 -160 66s-66 97.333 -66 160v1065c0 17.333 3 37.333 9 60
c-78 40.667 -140.333 98.834 -187 174.501s-70 158.834 -70 249.501zM1890 1766v721c0 58.667 20.667 108.667 62 150s91.333 62 150 62s108.667 -20.667 150 -62s62 -91.333 62 -150v-721c0 -48 -14.333 -90.667 -43 -128s-65.667 -62.333 -111 -75h3v-596h151l-84 -532
h-251l-84 532h146v596h3c-44.667 12.667 -81.5 37.667 -110.5 75s-43.5 80 -43.5 128z" />
    <glyph glyph-name="D" unicode="D" 
d="M253 2268c0 -142.667 3.49902 -272.835 10.499 -390.502s19.5 -237.834 37.5 -360.501s44.667 -238.167 80 -346.5s78.666 -207.166 129.999 -296.499c57.333 -99.333 144.333 -197 261 -293s237.5 -175.167 362.5 -237.5s237.833 -102.833 338.5 -121.5
c100.667 18.667 211.5 59.334 332.5 122.001s237 141.667 348 237s195.5 193 253.5 293c51.333 89.333 94.666 188.166 130 296.499c35.333 108.333 62 223.833 80 346.5s30.5 242.834 37.5 360.501s10.5 247.834 10.5 390.501c-38 0 -89.667 -1.33301 -155 -4
c-57.333 -2 -101.333 -3 -132 -3c-4 0.666992 -8 1 -12 1c-30.667 0 -70.834 4.5 -120.5 13.5c-49.667 9 -98.5 23.5 -146.5 43.5c-261.333 116.667 -469.666 234.334 -624.999 353c-133.333 -100 -351.666 -217.667 -654.999 -353c-48 -20 -96.667 -34.333 -146 -43
c-50 -9.33301 -90.333 -14 -121 -14c-4 0 -8 -0.333008 -12 -1h-20c-28.667 0 -66 1 -112 3c-65.333 2.66699 -117 4 -155 4zM947.999 936.999v1017h336l204 -672l177 672h337v-1017h-221v684l-182 -684h-249l-181 683v-683h-221z" />
    <glyph glyph-name="E" unicode="E" 
d="M418 1514c0 -206.667 50.667 -396 152 -568c101.333 -174.667 239.166 -312.5 413.499 -413.5s363.833 -151.5 568.5 -151.5c206.667 0 396.334 50.667 569.001 152c174.667 101.333 312.334 239 413 413c100.667 174 151 363.333 151 568
c0 207.333 -50.667 397.333 -152 570c-101.333 174.667 -239.166 312.334 -413.5 413c-174.333 100.667 -363.833 151 -568.5 151c-206.667 0 -396 -50.667 -568 -152c-174.667 -101.333 -312.5 -239.166 -413.5 -413.5c-101 -174.333 -151.5 -363.833 -151.5 -568.5z
M755 1514c0 105.333 20.833 207.5 62.5 306.5s98.5 184.5 170.5 256.5s157.5 129 256.5 171s201.167 63 306.5 63s207.666 -21 306.999 -63s185 -99 257 -171s128.833 -157.5 170.5 -256.5s62.5 -201.167 62.5 -306.5c0 -110 -20.667 -212.667 -62 -308
c-41.333 -96.667 -98.333 -181.667 -171 -255c-72 -72 -157.667 -128.833 -257 -170.5s-201.666 -62.5 -306.999 -62.5s-207.5 20.833 -306.5 62.5s-184.5 98.5 -256.5 170.5s-128.833 157.5 -170.5 256.5s-62.5 201.167 -62.5 306.5zM1245 1165
c0 -30 13 -52.332 39 -66.999c12.667 -7.33301 25.667 -11 39 -11c15.333 0 28.333 3 39 9l629 355c27.333 16 41 39 41 69c0 29.333 -13.667 52 -41 68l-629 355c-12.667 7.33301 -25.334 11 -38.001 11c-13.333 0 -26.666 -4 -39.999 -12
c-26 -14.667 -39 -37.334 -39 -68.001v-709z" />
    <glyph glyph-name="F" unicode="F" 
d="M742 460l0.000976562 2116c0 36.667 13 68 39 94s57.333 39 94 39h1060c36.667 -0.666992 68 -13.834 94 -39.5c26 -25.667 39 -56.834 39 -93.5v-476c-19.333 10 -37 20 -53 30l-28 19l-28 -19c-14 -9.33301 -29.667 -18.333 -47 -27v233h-1014v-1596h1014v282
c30 -18 47.333 -28 52 -30h42c8.66699 4 20.5 10.333 35.5 19s23.5 13.667 25.5 15v-566c0 -36.667 -12.833 -68 -38.5 -94s-56.834 -39 -93.501 -39h-1060c-36.667 0 -68 13 -94 39s-39 57.333 -39 94zM1780 1670l155 5l53 147l54 -147l155 -5l-123 -96l44 -149l-130 87
l-129 -87l44 149z" />
    <glyph glyph-name="G" unicode="G" 
d="M538 1947c0 130.667 24.667 255.667 74 375s120.333 225.333 213 318l105 -104c-78.667 -78.667 -139 -168.834 -181 -270.5c-42 -101.667 -63 -207.834 -63 -318.5c0 -110.667 21 -216.667 63 -318s102.333 -191.333 181 -270l-105 -104
c-92.667 92.667 -163.667 198.5 -213 317.5s-74 243.833 -74 374.5zM826 1948c0 59.333 7.66699 118.669 23 178.002c31.333 118.667 91.333 222.334 180 311l105 -104c-69.333 -69.333 -116.333 -151 -141 -245c-12.667 -46.667 -19 -93.334 -19 -140.001
s6.33301 -93.667 19 -141c24.667 -94 71.667 -175.667 141 -245l-105 -104c-88.667 88.667 -148.667 192.667 -180 312c-15.333 59.333 -23 118.666 -23 177.999zM1113 1947.5c0 113 40 209.167 120 288.5l104 -104c-50.667 -50.667 -76 -112.167 -76 -184.5
s25.333 -133.833 76 -184.5l-104 -104c-80 79.333 -120 175.5 -120 288.5zM1337 380.003l103 1440c-43.333 30 -65 70 -65 120c0 41.333 14.5 76.5 43.5 105.5s63.833 43.5 104.5 43.5c41.333 0 76.5 -14.5 105.5 -43.5s43.5 -64.167 43.5 -105.5
c0 -49.333 -22 -89.333 -66 -120l104 -1440h-373zM1710 1763c50.667 51.333 76 113 76 185s-25.333 133.333 -76 184l104 104c80 -79.333 120 -175.5 120 -288.5s-40 -209.167 -120 -288.5zM1913 1562c70 69.333 117.333 150.998 142 244.998
c12.667 47.333 19 94.333 19 141s-6.33301 93.334 -19 140.001c-24.667 94 -72 175.667 -142 245l105 104c88.667 -88.667 148.667 -192.334 180 -311.001c16 -59.333 24 -118.666 24 -177.999s-8 -118.666 -24 -177.999c-31.333 -119.333 -91.333 -223.333 -180 -312z
M2117 1359c78.667 78.667 139 168.666 181 269.999s63 207.333 63 318s-21 216.834 -63 318.5c-42 101.667 -102.333 191.834 -181 270.501l105 104c92.667 -92.667 163.667 -198.667 213 -318s74 -244.333 74 -375s-24.667 -255.5 -74 -374.5
s-120.333 -224.833 -213 -317.5z" />
    <glyph glyph-name="H" unicode="H" 
d="M390 1551l0.00292969 11.9961c2.66699 122 36 237.833 100 347.5s148.667 203.5 254 281.5s230.666 139.333 375.999 184c136.667 42 279 63 427 63h27c158.667 -3.33301 309.5 -30.166 452.5 -80.5c143 -50.333 265.833 -116.666 368.5 -198.999
s183.667 -179.5 243 -291.5c56.667 -107.333 85 -219 85 -335v-16c-2.66699 -122 -35.834 -237.833 -99.5 -347.5c-63.667 -109.667 -148.167 -203.5 -253.5 -281.5s-230.666 -139.333 -376 -184c-136.667 -42 -279.334 -63 -428.001 -63h-27
c-143.333 4 -280.666 26.333 -411.999 67l-590 -252l11 23c4.66699 10 12.667 30.333 24 61s21.166 61.334 29.499 92.001s15.833 67.334 22.5 110.001c4.66699 30.667 7 60.334 7 89.001v11v20c-1.33301 38 -8.33301 77.333 -21 118s-31.334 77 -56.001 109
c-109.333 144 -164 298 -164 462zM1307 1036h549v90h-151v611h-356v-76h104v-535h-146v-90zM1414 1951c0 -40 14.333 -74.333 43 -103s63 -43 103 -43s74.167 14.333 102.5 43s42.5 63 42.5 103s-14.167 74.167 -42.5 102.5s-62.5 42.5 -102.5 42.5s-74.333 -14 -103 -42
c-28.667 -28.667 -43 -63 -43 -103z" />
    <glyph glyph-name="I" unicode="I" 
d="M460 727v1577c0 74.667 26.5 138.5 79.5 191.5s116.833 79.5 191.5 79.5h1577c74.667 0 138.5 -26.5 191.5 -79.5s79.5 -116.833 79.5 -191.5v-1577c0 -74.667 -26.5 -138.5 -79.5 -191.5s-116.833 -79.5 -191.5 -79.5h-1577c-74.667 0 -138.5 26.5 -191.5 79.5
s-79.5 116.833 -79.5 191.5zM783 661h212v424h-212v-424zM1207 664h212v903h-212v-903zM1630 661h212v572h-212v-572zM1810 1862l65.998 0.000976562c4.66699 -36.667 12.334 -70.334 23.001 -101.001c12 -34 29 -65 51 -93c22.667 -29.333 50.334 -52 83.001 -68
c32.667 -17.333 74 -26 124 -26c32 0 59.667 2.66699 83 8c24.667 4.66699 48 13 70 25c19.333 10.667 40.333 26.334 63 47.001l-56 122c-16.667 -16 -36 -31 -58 -45c-23.333 -15.333 -52 -23 -86 -23c-26 0 -47.333 4.66699 -64 14c-17.333 10 -30.333 22 -39 36
c-9.33301 16 -16 32.333 -20 49c-4 17.333 -7 35.666 -9 54.999h155v92h-386v-92zM1810 2014l386.001 -0.000976562v93h-153c0.666992 2.66699 1.33398 6.66699 2.00098 12s1.5 10.833 2.5 16.5s2.16699 11.167 3.5 16.5c4 20 15 39.333 33 58c18 19.333 43 29 75 29
c18.667 0 36 -3 52 -9c17.333 -6.66699 31 -15 41 -25c12 -12 23.667 -28 35 -48l88 105c-7.33301 8.66699 -20.666 23.334 -40 44.001c-18 19.333 -42.333 36 -73 50c-28.667 13.333 -67.334 20 -116.001 20c-47.333 0 -90 -10 -128 -30
c-36.667 -19.333 -68.334 -52 -95.001 -98c-24.667 -44 -39.667 -91 -45 -141zM2081 659h212v359h-212v-359z" />
    <glyph glyph-name="J" unicode="J" 
d="M247 1736c0 16.667 5.33301 32.333 16 47c13.333 18 31 28.667 53 32l636 99c22 3.33301 42.167 -1.5 60.5 -14.5s29.166 -30.5 32.499 -52.5l197 -1271c3.33301 -22 -1.5 -42 -14.5 -60s-30.5 -28.667 -52.5 -32l-636 -99c-22 -3.33301 -42.167 1.5 -60.5 14.5
s-29.166 30.5 -32.499 52.5l-198 1271c-0.666992 4.66699 -1 9 -1 13zM364 1593l150 -958l609 95l-150 958zM781 550.999c0 -3.33301 0.335938 -6.66699 1.00293 -10c2.66699 -15.333 10.5 -27.666 23.5 -36.999s27.167 -12.666 42.5 -9.99902s27.666 10.334 36.999 23.001
s12.666 26.667 9.99902 42s-10.334 27.666 -23.001 36.999s-26.667 12.666 -42 9.99902s-28 -10.334 -38 -23.001c-7.33301 -10 -11 -20.667 -11 -32zM1094 1849l222 814c7.33301 26.667 23 47 47 61c15.333 8.66699 31.666 13 48.999 13c8.66699 0 17.667 -1.33301 27 -4
l1275 -349c26.667 -7.33301 46.667 -23 60 -47c9.33301 -16 14 -32.667 14 -50c0 -8.66699 -1 -17.334 -3 -26l-496 -1812c-6.66699 -26.667 -22.334 -47 -47 -61c-15.333 -8.66699 -31.333 -13 -48 -13c-9.33301 0 -18.666 1.33301 -27.999 4l-881 241l-44 284l900 -247
l425 1552l-1088 298l-310 -1135zM1297 1218v98h118v118h98v-118h118v-98h-118v-117h-98v117h-118zM1507 670.998c0 -9.33301 2.33301 -18 7 -26c7.33301 -12.667 18.333 -21 33 -25c5.33301 -1.33301 10.333 -2 15 -2c9.33301 0 18 2.33301 26 7
c12.667 7.33301 21 18.333 25 33c1.33301 4.66699 2 9.66699 2 15c0 8.66699 -2.33301 17.334 -7 26.001c-7.33301 13.333 -18.333 21.666 -33 24.999c-5.33301 1.33301 -10.333 2 -15 2c-9.33301 0 -18 -2.33301 -26 -7c-12.667 -7.33301 -21 -18.333 -25 -33
c-1.33301 -5.33301 -2 -10.333 -2 -15z" />
    <glyph glyph-name="K" unicode="K" 
d="M219 1035h261v285h115l189 -285h301l-224 328c60.667 26 108.167 63.333 142.5 112s51.5 108 51.5 178v2c0 91.333 -28 164.333 -84 219c-66.667 68.667 -168.667 103 -306 103h-446v-942zM480 1525v226.001h171c44 0 78.5 -9.5 103.5 -28.5s37.5 -46.833 37.5 -83.5v-3
c0 -34.667 -12.333 -61.834 -37 -81.501s-59 -29.5 -103 -29.5h-172zM1158 1035h787l-56 222h-731v-222zM1158 1395h696l-57 222h-639v-222zM1158 1755h604l-57 222h-547v-222zM2013 1035h358c92.667 0 175.667 15 249 45c91.333 36.667 162 92.667 212 168
s75 162.333 75 261v2c0 138.667 -47.333 251 -142 337s-224.334 129 -389 129h-363v-942zM2274 1267v478h106c79.333 0 142.5 -21 189.5 -63s70.5 -100.333 70.5 -175v-2c0 -74.667 -23.5 -133 -70.5 -175s-110.167 -63 -189.5 -63h-106z" />
    <glyph glyph-name="L" unicode="L" 
d="M353 1491c0 157.333 30.667 307.666 92 450.999s143.833 267 247.5 371s227.167 186.667 370.5 248s293.666 92 450.999 92s307.666 -30.667 450.999 -92s267 -144 371 -248s186.667 -227.667 248 -371s92 -293.666 92 -450.999s-30.667 -307.666 -92 -450.999
s-144 -266.833 -248 -370.5s-227.667 -186.167 -371 -247.5s-293.666 -92 -450.999 -92s-307.666 30.667 -450.999 92s-266.833 143.833 -370.5 247.5s-186.167 227.167 -247.5 370.5s-92 293.666 -92 450.999zM631 1201h504l-41 -232h297l40 232h122l43 243h-122l129 730
h-264l-665 -730zM925 1444l313 342l-60 -342h-253zM1663 1295c0 -24.667 1.66602 -48.334 4.99902 -71.001c8 -53.333 25 -98.333 51 -135c26.667 -37.333 60.667 -66 102 -86c42 -20 91.667 -30 149 -30c66.667 0 125.667 5 177.001 15c53.333 10.667 99 23 137 37l74 419
h-309l-28 -163h111l-21 -117c-26.667 -5.33301 -58 -8 -94 -8c-24.667 0 -46 4.66699 -64 14c-18.667 10 -34 25.333 -46 46s-19.333 46.334 -22 77.001c-1.33301 10 -2 20.333 -2 31c0 23.333 2.66699 49 8 77c15.333 85.333 41.333 147.333 78 186c38 40 81.333 60 130 60
c36 0 63.333 -8.66699 82 -26c19.333 -18 35.666 -42 49 -72l168 116c-26 54 -60.333 95.333 -103 124c-43.333 29.333 -102.333 44 -177 44c-54.667 0 -112.667 -12 -174 -36c-58 -22.667 -114 -69 -168 -139c-50.667 -68.667 -85 -153.667 -103 -255
c-6.66699 -37.333 -10 -73.333 -10 -108z" />
    <glyph glyph-name="M" unicode="M" 
d="M353 686v1163l102 -142v1l396 -528l234 217l90 -106l109 -138v-461v-5c0 -23.333 -8 -43.666 -24 -60.999c-17.333 -18.667 -39 -29.667 -65 -33h-741c-25.333 0 -47.5 9 -66.5 27s-30.5 40 -34.5 66zM364 2016v314.999c0 26 9.33301 47.667 28 65
c16 14.667 34.667 22 56 22c3.33301 0 6.66602 -0.333008 9.99902 -1h741c26 -0.666992 47.667 -10.334 65 -29c15.333 -16.667 23 -35.667 23 -57v-8v-401h149v613c0 31.333 11.167 58.166 33.5 80.5c22.333 22.333 49.166 33.5 80.499 33.5h911
c31.333 -0.666992 58.166 -12.167 80.5 -34.5c22.333 -22.333 33.5 -49.166 33.5 -80.499v-1817c0 -31.333 -11.167 -58.166 -33.5 -80.499s-49.166 -33.5 -80.499 -33.5h-911c-31.333 0 -58.166 11.167 -80.499 33.5s-33.5 49.166 -33.5 80.499v1019h-154v-429l-108 139
l-97 111l-215 -206l-393 509zM469 881.998h706v356l-91 104l-236 -222l-379 493v35v-766zM470 1935l395 -525l213 202l97 -118v242h-207v186h212v241h-710v-228zM758 729.998c0 -18 6.5 -33.334 19.5 -46.001s28.5 -19 46.5 -19c18 0.666992 33.333 7.33398 46 20.001
s19 28 19 46s-6.5 33.5 -19.5 46.5s-28.5 19.167 -46.5 18.5c-18 0 -33.333 -6.5 -46 -19.5s-19 -28.5 -19 -46.5zM790 1830l178 178v-86h-9v-186h9v-84zM1523 900.997h964v1501h-964v-480h207v-186h-207v-835zM1729 1922v86l178 -179l-177 -177v84h16v186h-17z
M1924 768.997c0 -22.667 7.83301 -41.834 23.5 -57.501s34.834 -23.5 57.501 -23.5c22 0 41 7.83301 57 23.5s24 34.834 24 57.501c0 22 -8 40.833 -24 56.5s-35 23.5 -57 23.5c-22.667 0 -41.834 -7.66699 -57.501 -23s-23.5 -34.333 -23.5 -57z" />
    <glyph glyph-name="N" unicode="N" 
d="M166 1567c0 157.333 30.666 307.5 91.999 450.5s143.666 266.167 246.999 369.5s226.5 185.666 369.5 247c143 61.333 293.167 92 450.5 92s307.5 -30.667 450.5 -92s266.167 -143.666 369.5 -246.999s185.666 -226.5 247 -369.5c61.333 -143 92 -293.167 92 -450.5
s-30.667 -307.5 -92 -450.5s-143.666 -266.167 -246.999 -369.5s-226.5 -185.666 -369.5 -246.999s-293.167 -92 -450.5 -92s-307.5 30.667 -450.5 92s-266.167 143.666 -369.5 246.999s-185.666 226.333 -246.999 369c-61.333 143.333 -92 293.666 -92 450.999z
M477.999 2261c2.66699 -3.33301 13.5049 -23.6641 32.5049 -60.998c19 -37.333 33.5 -61.666 43.5 -73c-2 0.666992 -5.5 2.16699 -10.5 4.5l-11.5 5.5c-6.66699 -29.333 -10.334 -57.666 -11.001 -85v-8c0.666992 -24.667 3.66699 -48 9 -70
c6.66699 -24.667 14.334 -47.667 23.001 -69s20.334 -43.833 35.001 -67.5l41.5 -64.5l46.5 -68.5c18 -26.333 33.333 -50.166 46 -71.499c-4 8.66699 -14.333 35.334 -31 80.001s-30 76.667 -40 96l41 -45l138 -148.5c35.333 -36.333 82 -80.833 140 -133.5
c58.667 -52 112 -88.667 160 -110c30.667 -13.333 59 -20.333 85 -21c14 0 27.333 2 40 6c1.33301 -7.33301 2 -15.333 2 -24c0 -30.667 -6.66699 -68 -20 -112s-20 -76 -20 -96c0 -6 0.666992 -11 2 -15c7.33301 -27.333 20 -55.5 38 -84.5s35.5 -53.833 52.5 -74.5
s32.667 -45.334 47 -74.001s22.5 -57.334 24.5 -86.001v-14c0 -50.667 -16.667 -113 -50 -187c-18 -40 -27 -65 -27 -75c0 -9.33301 6.33301 -14 19 -14c44 0 92.833 18.333 146.5 55s81.834 69.667 84.501 99c102.667 86 178.334 177.667 227.001 275
c26.667 54 40 100 40 138c0 24.667 -5.66699 45.667 -17 63c-18.667 28 -52 42 -100 42c0 12 -4.33301 14.667 -13 8c-1.33301 34 -11 64.5 -29 91.5s-42.333 49.333 -73 67s-59.334 31.834 -86.001 42.501s-57 21.667 -91 33c-8 2 -13.667 3.66699 -17 5
c-3.33301 -5.33301 -7.5 -14.833 -12.5 -28.5s-9.5 -22.834 -13.5 -27.501c-2.66699 8.66699 -3.83398 15.667 -3.50098 21s1.66602 12.5 3.99902 21.5s3.5 14.833 3.5 17.5c-6.66699 -6.66699 -19.334 -18 -38.001 -34s-34 -31 -46 -45c-32 22 -101 72.333 -207 151
c18 36.667 30.333 72.334 37 107.001c-37.333 -29.333 -70 -44 -98 -44c-16.667 0 -31.667 5 -45 15c-23.333 18 -35 44.667 -35 80v8c2 41.333 18.333 71 49 89c14.667 8 31 12 49 12c13.333 0 27.333 -2 42 -6c4 2.66699 2.33301 6.16699 -5 10.5
s-13.333 7.16602 -18 8.49902c18 -6.66699 35.833 -11.334 53.5 -14.001s30.167 -4.83398 37.5 -6.50098s16.666 -8.5 27.999 -20.5s24.666 -31.333 39.999 -58c7.33301 46.667 19 100.167 35 160.5s24.667 93.833 26 100.5c2 0 4.66699 3.16699 8 9.5s5.33301 11.5 6 15.5
c1.33301 -1.33301 2.33301 -8.16602 3 -20.499s0.333984 -20.5 -0.999023 -24.5c14 31.333 24 50.333 30 57c9.33301 9.33301 30 19.666 62 30.999v1l-1 1l9 17.5c4.66699 9 8.33398 15 11.001 18s8.66699 8.33301 18 16s21.333 15.5 36 23.5c-2 -4 -2 -6.33301 0 -7
c-6 -3.33301 -10.833 -8 -14.5 -14s-3.5 -11.333 0.5 -16c1.33301 0.666992 14.833 8 40.5 22s42.5 21.333 50.5 22c-11.333 1.33301 -15.333 6.66602 -12 16c-6 1.33301 -14.833 2.16602 -26.5 2.5c-11.667 0.333008 -22.334 2 -32.001 5s-21.834 8.83301 -36.501 17.5
c18.667 0 29.667 2.66699 33 8c0 2 -0.666992 4 -2 6c-14 -2 -25 -4.33301 -33 -7c72.667 36.667 123.667 60 153 70c-47.333 61.333 -101 112 -161 152c-4 1.33301 -16.667 3.66602 -38 7l-76.5 12.5c-29.667 5 -55.167 10.167 -76.5 15.5c4.66699 -24.667 7 -44.667 7 -60
c0 -4.66699 -0.333008 -9 -1 -13c-2 -16 -5.33301 -38 -10 -66c-3.33301 -21.333 -5 -40 -5 -56v-14l-43.5 34.5l-43.5 34.5l-39 33c-15.333 13.333 -26.666 24.333 -33.999 33s-14.833 19 -22.5 31s-11.334 22.167 -11.001 30.5s2.66602 17.666 6.99902 28
c4.33301 10.333 12.5 19.666 24.5 28c12 8.33301 28.167 16.833 48.5 25.5s44.833 16.667 73.5 24c-7.33301 0 -12.333 1.16699 -15 3.5s-3.16699 5.16602 -1.5 8.5c1.66699 3.33301 3.66699 6.33301 6 9s4.5 5 6.5 7c-14.667 -4 -25 -7.33301 -31 -10s-12 -6 -18 -10
s-14.333 -8.66699 -25 -14c-14 25.333 -42.667 51.333 -86 78c-1.33301 0 -3 -0.333008 -5 -1c-2 0 -2.66699 -2.33301 -2 -7c0 -3.33301 0.166992 -6.5 0.5 -9.5s0.833008 -8 1.5 -15s1 -14.833 1 -23.5c-2 0 -6 -2.33301 -12 -7s-9.33301 -8 -10 -10
c-6 4.66699 -7.66699 10.334 -5 17c2.66699 6.66699 3 12.5 1 17.5s-8.66699 6.5 -20 4.5c-32.667 -23.333 -94.334 -35 -185.001 -35c-11.333 0 -23.333 0.333008 -36 1c-22 -12.667 -70.333 -52.167 -145 -118.5s-115 -103.833 -121 -112.5zM768.004 2508
c84.667 6.66699 134.999 10 150.999 10c-8.66699 2 -15.334 7 -20.001 15s-8.66699 14.167 -12 18.5s-14.666 3.5 -33.999 -2.5s-47.666 -19.667 -84.999 -41zM1041 2615c4.66699 0 18.5 -1.66699 41.5 -5s40.167 -5 51.5 -5s28.333 2 51 6c-26 8 -52.333 12 -79 12
c-21.333 0 -43 -2.66699 -65 -8zM1065 2558c35.333 -4 78.332 -16.667 128.999 -38s84.334 -34 101.001 -38c-8.66699 -12.667 -15.667 -19.667 -21 -21s-10.333 -0.833008 -15 1.5s-14 -0.833984 -28 -9.5c0.666992 0 0 -1.33301 -2 -4s-4.16699 -5.16699 -6.5 -7.5
s-3.83301 -3.5 -4.5 -3.5c79.333 -26.667 137.333 -43 174 -49c-0.666992 10 -12.667 20.667 -36 32c15.333 -4.66699 26 -8 32 -10s10 -2.33301 12 -1s2.33301 2.83301 1 4.5l-11.5 14l-16.5 20.5c26.667 5.33301 46 7.66602 58 7c0.666992 6 3.33398 11.667 8.00098 17
c-44.667 38 -99 65.667 -163 83c-32.667 8.66699 -61.667 13 -87 13s-47.666 -4.33301 -66.999 -13c-22.667 5.33301 -23 14.333 -1 27c-2.66699 -1.33301 -8.33398 -3.16602 -17.001 -5.5c-8.66699 -2.33301 -15.834 -4.83301 -21.501 -7.5s-11.5 -6.66699 -17.5 -12z
M1100 2629h9.00195c18 0 50.333 2.66699 97 8c-14.667 6 -29.334 9 -44.001 9c-20.667 0 -41.334 -5.66699 -62.001 -17zM1109 2426c0 -2.66699 0.666992 -4.66699 2 -6c4 -3.33301 12 -2.5 24 2.5s24.667 4.83301 38 -0.5c10.667 -4 14.667 -4.66699 12 -2
c-8 8 -27 18.667 -57 32l-10 4c-6 -14 -9 -24 -9 -30zM1281 2640c102 -8.66699 191.668 -43 269.001 -103c-8.66699 -2.66699 -15 -3.33398 -19 -2c-4 1.33301 -6.83301 2.83301 -8.5 4.5s-3.33398 1.66699 -5.00098 0s-4.16699 -6.83398 -7.5 -15.5
c3.33301 -6 10.833 -8 22.5 -6s18.5 5 20.5 9c-0.666992 -42.667 10.5 -74.667 33.5 -96s67.167 -46.666 132.5 -76c0 34 3.33301 61 10 81c58 35.333 100.333 58 127 68c-170 96.667 -352 145 -546 145h-19c12 -0.666992 18.667 -1.33398 20 -2l-14 -4
c-0.666992 0 -1.66699 -0.333008 -3 -1zM1358 2106l26 13l23.5 11.5c6.33301 3 12.833 5.5 19.5 7.5c-35.333 -16.667 -58.333 -27.334 -69 -32zM2203 1604c0 -26 4.33203 -50.6689 12.999 -74.002c10.667 -29.333 31.834 -56 63.501 -80s72.167 -41.667 121.5 -53
c9.33301 52 14 104.667 14 158c0 100 -16 202.667 -48 308c-29.333 -14 -56 -33.667 -80 -59s-43.5 -53.166 -58.5 -83.499s-23.5 -62.166 -25.5 -95.499v-15v-6z" />
    <glyph glyph-name="O" unicode="O" 
d="M789 377v2324c0 40.667 14.167 75.334 42.5 104c28.333 28.667 62.833 43 103.5 43h1164c40.667 0 75.167 -14.333 103.5 -43s42.5 -63.334 42.5 -104v-2324c0 -40 -14.167 -74.333 -42.5 -103s-62.833 -43 -103.5 -43h-1164c-40.667 0 -75.167 14.333 -103.5 43
s-42.5 63 -42.5 103zM965 685h1114v1753h-1114v-1753zM1039 1460c0 11.333 2.00488 24.3262 6.00488 38.9932c7.33301 23.333 21.666 52.333 42.999 87c14 22.667 26 41 36 55s23.667 28.833 41 44.5s35.666 27.167 54.999 34.5c7.33301 2.66699 32.5 13.167 75.5 31.5
s76.5 30.5 100.5 36.5c26 6.66699 51.667 10 77 10c38 0 75.667 -7.33301 113 -22c42 -16 89.333 -50.333 142 -103c23.333 -23.333 46 -58.666 68 -105.999c23.333 -49.333 36.333 -115.666 39 -198.999v-17c0 -30 -3 -55.667 -9 -77
c-20.667 -66.667 -54.334 -117 -101.001 -151c-26.667 -19.333 -67.334 -33 -122.001 -41c-23.333 -3.33301 -42 -5 -56 -5c-6 0 -11.333 0.333008 -16 1c-51.333 6.66699 -90.333 20 -117 40c-26.667 20.667 -51.334 52 -74.001 94s-37.667 74.333 -45 97
c-5.33301 17.333 -8 41.333 -8 72c0 15.333 0.666992 32 2 50c4 45.333 21.5 89.833 52.5 133.5s67.5 71.834 109.5 84.501c13.333 4 27.333 6 42 6c17.333 -0.666992 36 -3.66699 56 -9c36 -10.667 66.667 -26.334 92 -47.001c28 -24 49.333 -67.667 64 -131
c4.66699 -22 7 -42.333 7 -61c0 -28.667 -5.33301 -54 -16 -76c-10.667 -21.333 -27 -38.333 -49 -51c-9.33301 -6 -21 -9.66699 -35 -11c-11.333 -0.666992 -14.666 3.66602 -9.99902 12.999l1 2c1.33301 2.66699 4.33301 5 9 7s10 4 16 6s10 3.66699 12 5
c1.33301 0.666992 3.66602 2 6.99902 4s6.16602 3.5 8.49902 4.5s4.83301 2.5 7.5 4.5s4 3.5 4 4.5s-0.666992 2.5 -2 4.5c-0.666992 0.666992 -7.66699 -2.16602 -21 -8.49902s-27.333 -11.666 -42 -15.999s-29.667 -3.83301 -45 1.5c-36 17.333 -60.333 49 -73 95
c-6.66699 22.667 -10 43.667 -10 63c0 22.667 4.66699 43 14 61c13.333 26.667 28 41.334 44 44.001c8 2 16.333 1.33301 25 -2s12.667 -9 12 -17c0 -3.33301 -1 -5.33301 -3 -6s-6 -0.333984 -12 0.999023s-10 2 -12 2c-10.667 0.666992 -20 -6.33301 -28 -21
c-11.333 -18 -17.333 -38.333 -18 -61c0 -2.66699 0.333008 -5 1 -7c2.66699 -58.667 21.667 -100 57 -124c18 -12 34.667 -15.667 50 -11c2.66699 0.666992 16.334 7.66699 41.001 21c3.33301 2 8.66602 4 15.999 6s12.833 4.33301 16.5 7s6.16699 7 7.5 13
c3.33301 14.667 5 29.667 5 45c0 16 -2 32.667 -6 50c-8 34 -20.333 65.667 -37 95c-23.333 39.333 -61 63.666 -113 72.999c-12.667 2 -24.334 3 -35.001 3c-36 0 -67.333 -11 -94 -33c-25.333 -21.333 -46.5 -47.166 -63.5 -77.499s-26.833 -61.166 -29.5 -92.499
c-1.33301 -21.333 -2 -39.666 -2 -54.999c0 -18.667 1 -33 3 -43c1.33301 -6.66699 3.83301 -14.334 7.5 -23.001s7.83398 -17.667 12.501 -27l9 -18c13.333 -32.667 31 -63.667 53 -93c4.66699 -6.66699 12 -14.5 22 -23.5s19.333 -16.167 28 -21.5s13.667 -7.33301 15 -6
c0.666992 1.33301 -3.66602 6.16602 -12.999 14.499s-21.5 21.166 -36.5 38.499s-26.833 35 -35.5 53c-7.33301 14 -17 35 -29 63c-10.667 26.667 -16 53.334 -16 80.001c0 22.667 2.33301 48 7 76c3.33301 24 11.333 52.333 24 85c8 18 16.667 29.667 26 35
c4.66699 2.66699 8.5 2.16699 11.5 -1.5s3.16699 -8.16699 0.5 -13.5l-13 -26c-6 -12 -10.833 -22.833 -14.5 -32.5s-6.16699 -18.834 -7.5 -27.501v-1c-3.33301 -16.667 -4.66602 -32.834 -3.99902 -48.501s2 -28.167 4 -37.5s4.16699 -18.166 6.5 -26.499
s3.5 -13.166 3.5 -14.499c0 -5.33301 -0.833008 -10.666 -2.5 -15.999s-1.83398 -12.666 -0.500977 -21.999c1.33301 -7.33301 3.5 -15 6.5 -23s5.83301 -14.833 8.5 -20.5s6.5 -13.167 11.5 -22.5l11.5 -21c4.66699 -8.66699 17.667 -24.667 39 -48
c30 -32.667 57.667 -51.334 83 -56.001c6 -1.33301 21.333 -2 46 -2c70 4 123 23.333 159 58c19.333 18.667 35.5 42.834 48.5 72.501s21.5 58.834 25.5 87.501c2 15.333 3 31.333 3 48c0 22 -1.66699 45 -5 69c-6 42.667 -16 80.334 -30 113.001
c-33.333 79.333 -87.333 140.333 -162 183c-47.333 27.333 -95.666 41 -144.999 41c-28.667 0 -57.667 -4.66699 -87 -14c-16.667 -5.33301 -40.334 -14.833 -71.001 -28.5s-53.667 -23.167 -69 -28.5c-37.333 -12 -69.333 -35 -96 -69
c-21.333 -26.667 -41.333 -57.167 -60 -91.5s-29 -63.5 -31 -87.5c0 -4 -1.5 -7 -4.5 -9s-6 -2.33301 -9 -1s-4.5 6 -4.5 14zM1049 1330.99c0 8.66699 0.335938 17.335 1.00293 26.002c4.66699 54 25.667 119.667 63 197c28 58.667 72 103.667 132 135
c10 5.33301 15.667 5.16602 17 -0.500977s-1.33398 -10.834 -8.00098 -15.501c-10 -6.66699 -24.333 -17.334 -43 -32.001c-17.333 -12 -32.666 -26.333 -45.999 -43c-17.333 -21.333 -37.666 -61.666 -60.999 -120.999c-22 -54.667 -33 -103.667 -33 -147
c0 -10 0.666992 -19.333 2 -28c1.33301 -12 4.5 -24.667 9.5 -38s11.5 -28.333 19.5 -45s13.667 -29 17 -37c6 -14.667 14.667 -33 26 -55s20.333 -36.333 27 -43c6 -6 5.33301 -10.667 -2 -14c-4.66699 -2 -9.33398 -1 -14.001 3c-12.667 11.333 -22.334 23.333 -29.001 36
c-2 3.33301 -12.333 26.666 -31 69.999c-2.66699 6.66699 -8.33398 18.167 -17.001 34.5s-14.334 28.833 -17.001 37.5c-8.66699 24.667 -13 51.334 -13 80.001zM1049.01 1591.99c-0.666992 4 1.00488 8.3291 5.00488 12.9961l11 14.5c3.33301 4.33301 7.66602 9 12.999 14
s8 7.83301 8 8.5c31.333 36 52.666 59.333 63.999 70c34.667 33.333 82.667 61.666 144 84.999c53.333 21.333 109.333 32 168 32h6c61.333 -0.666992 118.666 -13.667 171.999 -39c49.333 -23.333 94.666 -62.333 135.999 -117c15.333 -20.667 31 -46.667 47 -78
c24.667 -51.333 39.667 -98 45 -140c5.33301 -42.667 8 -75 8 -97c0 -62.667 -8.33301 -112.667 -25 -150c-4.66699 -10 -19.834 -29.333 -45.501 -58s-45.5 -47.667 -59.5 -57c-24 -16 -56.333 -26.333 -97 -31c-30 -3.33301 -45.667 -1.66602 -47 5.00098
c-0.666992 2 0.166016 3.66699 2.49902 5s5.83301 2.5 10.5 3.5s9.33398 1.83301 14.001 2.5l17.5 2.5c7 1 12.833 2.16699 17.5 3.5c25.333 6 47 14.333 65 25c13.333 8 33 27 59 57c17.333 20 28.666 33.833 33.999 41.5s11 20.334 17 38.001s10 39.834 12 66.501
c1.33301 14.667 2 29.667 2 45c0 41.333 -4.66699 84.333 -14 129c-2.66699 12 -8.33398 28.667 -17.001 50s-13.667 34 -15 38c-8.66699 24.667 -21.667 48.334 -39 71.001c-0.666992 0.666992 -4 4.83398 -10 12.501l-10.5 13.5c-1 1.33301 -4.16699 5.33301 -9.5 12
l-10.5 13l-10 11.5c-5 5.66699 -9 9.66699 -12 12s-6.66699 5.66602 -11 9.99902s-8.66602 8 -12.999 11s-8.83301 5.83301 -13.5 8.5c-52.667 32.667 -111.667 51.667 -177 57c-11.333 0.666992 -22.666 1 -33.999 1c-52.667 0 -102.667 -9.66699 -150 -29
c-66 -25.333 -118 -57.666 -156 -96.999l-30 -34.5c-13.333 -15.667 -24 -27.5 -32 -35.5c-0.666992 -0.666992 -3.16699 -4 -7.5 -10s-8.5 -10.833 -12.5 -14.5s-7.33301 -5.16699 -10 -4.5l-1 1c-6 1.33301 -9 4.33301 -9 9zM1065.01 1668.99
c0 2.66699 0.351562 4.99414 1.01855 6.99414c0.666992 4 4.16699 8.83301 10.5 14.5s13.5 11.334 21.5 17.001s13.333 9.83398 16 12.501c29.333 29.333 72 59.666 128 90.999c6 3.33301 12.667 6.66602 20 9.99902s14.166 6.16602 20.499 8.49902s12.666 4.5 18.999 6.5
l17 5.5c5 1.66699 9.33301 3.16699 13 4.5s6.5 2.5 8.5 3.5s2.66699 1.83301 2 2.5c-2 2.66699 -5.66699 4 -11 4c-14 0 -39.667 -9.33301 -77 -28c-50.667 -26.667 -91.334 -52.334 -122.001 -77.001c-24.667 -18.667 -40 -23 -46 -13c-4 6.66699 0.666992 13.667 14 21
c10 5.33301 37 21 81 47s78.667 44.333 104 55c34 14 71.333 21 112 21c67.333 0 144 -19 230 -57c2.66699 -1.33301 6.66699 -3.16602 12 -5.49902l13.5 -6l12.5 -5.5c4.66699 -2 7.83398 -3.16699 9.50098 -3.5s3.16699 -0.166016 4.5 0.500977
c1.33301 2.66699 -0.5 5.83398 -5.5 9.50098s-11.833 7.5 -20.5 11.5s-17 7.66699 -25 11s-15 6 -21 8c-80.667 26.667 -138.667 42 -174 46c-8.66699 1.33301 -18 2 -28 2c-57.333 0 -126.333 -19 -207 -57c-30.667 -14 -52.334 -27.333 -65.001 -40
c-11.333 -11.333 -19.333 -13 -24 -5s2 18.667 20 32c28.667 22.667 63.834 41.834 105.501 57.501s82.167 26.167 121.5 31.5c14 2 28.167 3 42.5 3s26.5 -0.5 36.5 -1.5s22.667 -3.33301 38 -7s26.833 -6.5 34.5 -8.5s20.667 -5.83301 39 -11.5s31.166 -9.5 38.499 -11.5
c44 -12.667 76.667 -23.667 98 -33c18.667 -8.66699 42 -21.834 70 -39.501s48 -32.834 60 -45.501c20 -22 47 -72.333 81 -151c2 -5.33301 6.5 -16.333 13.5 -33l15 -35.5c3 -7 7.16699 -17.833 12.5 -32.5s9.5 -26.667 12.5 -36s6 -20.5 9 -33.5s5.5 -25.167 7.5 -36.5v-1
v-1c7.33301 -50 11 -83.667 11 -101v-4c0 -12.667 -2.66699 -31 -8 -55c-1.33301 -7.33301 -5.66602 -11.333 -12.999 -12c-4.66699 0.666992 -7.33398 2.66699 -8.00098 6c0 4 1.33301 16.167 4 36.5s3.66699 35.166 3 44.499c0 2 -0.166992 5.66699 -0.5 11
s-0.5 9.83301 -0.5 13.5s-0.166992 8.33398 -0.5 14.001s-0.833008 10.334 -1.5 14.001l-2 11c-0.666992 3.66699 -1.33398 6.16699 -2.00098 7.5s-1.66699 1.66602 -3 0.999023c-0.666992 -0.666992 -1.33398 -12.5 -2.00098 -35.5s-2 -50.167 -4 -81.5
s-5.33301 -55 -10 -71c-6.66699 -20.667 -19 -43.167 -37 -67.5s-32.333 -40.833 -43 -49.5l-37 -27c-7.33301 -5.33301 -17.666 -15.666 -30.999 -30.999s-21.666 -24.333 -24.999 -27c-6 -5.33301 -22.833 -11.833 -50.5 -19.5s-47.834 -11.834 -60.501 -12.501h-9
c-28.667 0 -64.334 2.66699 -107.001 8c-4.66699 0.666992 -12.334 1.5 -23.001 2.5s-19.667 2.33301 -27 4s-14.666 4.16699 -21.999 7.5l-30 14.5l-36 17.5c-10.667 5.33301 -20.334 11 -29.001 17c-49.333 34 -91 81.333 -125 142
c-22.667 40.667 -37.334 85.334 -44.001 134.001c-1.33301 18 -1.66602 31.333 -0.999023 40s2.16699 22.334 4.5 41.001s3.83301 32 4.5 40c2.66699 32.667 11.667 66.334 27 101.001c33.333 76.667 82.666 131.667 147.999 165c39.333 20 79 30.333 119 31
c8 0 15.667 -0.666992 23 -2c10.667 -1.33301 22.667 -3.66602 36 -6.99902l30.5 -7.5c7 -1.66699 10.833 -1.83398 11.5 -0.500977c1.33301 2.66699 -0.666992 5.33398 -6 8.00098s-12.333 5.33398 -21 8.00098l-25.5 7.5
c-8.33301 2.33301 -16.166 4.16602 -23.499 5.49902c-14 2 -27.667 3 -41 3c-52 0 -101.333 -17.333 -148 -52c-4 -3.33301 -11.333 -8.66602 -22 -15.999l-25.5 -18c-6.33301 -4.66699 -13.333 -10.834 -21 -18.501s-13.5 -15.167 -17.5 -22.5
c-12.667 -25.333 -26.667 -56.666 -42 -93.999c-4.66699 -11.333 -11.334 -38.333 -20.001 -81c-8 -39.333 -12 -69.333 -12 -90v-5c2.66699 -59.333 12.334 -106.333 29.001 -141l9 -18l9.5 -19l9 -17.5c4.33301 -8.33301 7.83301 -14.666 10.5 -18.999l10.5 -17
c4.33301 -7 8.33301 -12.833 12 -17.5l12.5 -15.5c4.66699 -5.66699 9.33398 -10.834 14.001 -15.501c12.667 -12 33.667 -26.667 63 -44l28.5 -20c15 -10.667 26.833 -18 35.5 -22c6.66699 -3.33301 53.334 -13 140.001 -29c26.667 -5.33301 48.667 -8 66 -8
c12 0 22 1.33301 30 4c6 1.33301 11.333 1.83301 16 1.5s8.16699 -1.66602 10.5 -3.99902s3.16602 -4.83301 2.49902 -7.5c-1.33301 -4.66699 -13 -9.66699 -35 -15c-18 -3.33301 -39 -3.33301 -63 0c-98 16 -154.333 27.667 -169 35c-10 4 -21.333 10.667 -34 20
c-6 4 -22.833 14.5 -50.5 31.5s-47.834 31.833 -60.501 44.5c-8 8 -16.167 18 -24.5 30s-14.333 21.167 -18 27.5s-10.167 18.333 -19.5 36l-16 30.5c-22.667 42.667 -37 86.667 -43 132c-0.666992 6 -1 13 -1 21c0 19.333 2.33301 43.666 7 72.999
c6.66699 40 13 70.667 19 92c1.33301 5.33301 5 14.666 11 27.999l15.5 35.5c4.33301 10.333 6.16602 16.5 5.49902 18.5c-2 4 -7.33301 -1.33301 -16 -16c-19.333 -30 -32.333 -58.333 -39 -85c-13.333 -50 -23.666 -84 -30.999 -102c-7.33301 -16.667 -11 -32 -11 -46
c0 -10 2 -19 6 -27c3.33301 -8 12.166 -26.833 26.499 -56.5s24.833 -52.834 31.5 -69.501c28.667 -70 71.334 -126.667 128.001 -170c4.66699 -3.33301 12 -9.16602 22 -17.499l27.5 -22c8.33301 -6.33301 16.5 -11.166 24.5 -14.499c6.66699 -2.66699 13 -6.5 19 -11.5
s5.66699 -9.16699 -1 -12.5c-2.66699 -1.33301 -5.33398 -2 -8.00098 -2c-12 0 -29.333 9 -52 27l-23.5 19l-24.5 20l-22 18.5c-10.667 9 -18.334 16 -23.001 21l-19.5 20.5c-8.33301 8.66699 -14.833 16.5 -19.5 23.5l-16 24.5c-6 9.33301 -11.333 18.666 -16 27.999
c-0.666992 2 -15 35.333 -43 100c-2.66699 6 -6.83398 14.333 -12.501 25l-13 25c-3 6 -6.33301 14.333 -10 25s-5.16699 19.334 -4.5 26.001s1.66699 16 3 28c35.333 116 61.666 186.667 78.999 212c2.66699 4 17 22.667 43 56c4.66699 6 12.5 12.5 23.5 19.5
s17.833 11.833 20.5 14.5c21.333 18 46 37.333 74 58c38.667 27.333 81.334 43 128.001 47c7.33301 0.666992 14.666 0.666992 21.999 0c38.667 0 76.334 -8 113.001 -24c20 -8.66699 38 -19.334 54 -32.001c5.33301 -4 12.333 -11.333 21 -22s15.334 -17.667 20.001 -21
c21.333 -16 42.333 -43 63 -81c22 -41.333 37.667 -88 47 -140c4.66699 -27.333 7.33398 -53.666 8.00098 -78.999c0 -22.667 -2 -45 -6 -67c-4.66699 -28.667 -14.334 -52.334 -29.001 -71.001c-18 -23.333 -32 -32.333 -42 -27c-4.66699 2.66699 -4.66699 7.66699 0 15
s11.167 15.5 19.5 24.5s13.166 14.833 14.499 17.5c12.667 23.333 19 55.333 19 96c0 26 -2.66699 55.667 -8 89c-10.667 67.333 -38 130.333 -82 189c-14.667 18 -47.334 37.667 -98.001 59c-22 9.33301 -46.667 14.666 -74 15.999c-5.33301 0.666992 -10.666 1 -15.999 1
c-58 0 -111.667 -20 -161 -60c-51.333 -40.667 -87 -95 -107 -163c-2.66699 -10.667 -4.83398 -21.667 -6.50098 -33s-3.16699 -24.333 -4.5 -39s-2.66602 -26 -3.99902 -34c-2.66699 -21.333 -4 -38 -4 -50c0 -16 2.33301 -25 7 -27c1.33301 0 2.16602 0.5 2.49902 1.5
s0.5 2.66699 0.5 5s-0.166992 5 -0.5 8s-0.5 6.16699 -0.5 9.5v9c0 2.66699 0.166992 5.33398 0.5 8.00098s1.16602 4.66699 2.49902 6c7.33301 9.33301 12.666 3.33301 15.999 -18l2 -27c0 -6.66699 -2 -14.167 -6 -22.5s-6 -13.5 -6 -15.5
c0 -5.33301 3.66699 -17.666 11 -36.999c7.33301 -16.667 20.833 -39.334 40.5 -68.001s34.5 -48 44.5 -58c46 -46 96.667 -79.667 152 -101c10 -4 26 -6.66699 48 -8s34.333 -2.33301 37 -3c18 -2.66699 36.667 -4 56 -4c14 0 28.667 0.666992 44 2
c12.667 0.666992 26.167 3.16699 40.5 7.5s25.833 9 34.5 14s12.334 9.16699 11.001 12.5c-0.666992 1.33301 -7.5 0.5 -20.5 -2.5s-30.5 -6.66699 -52.5 -11s-41.667 -6.83301 -59 -7.5c-14.667 -0.666992 -35.667 1.83301 -63 7.5s-43 8.83398 -47 9.50098
c-24.667 3.33301 -47.667 9.33301 -69 18c-20 8 -46.333 29.667 -79 65c-30 33.333 -53.5 65.833 -70.5 97.5s-29.167 69.834 -36.5 114.501c-4 19.333 -6 39 -6 59c0.666992 2 1 3.66699 1 5c0 22 1.66699 44.667 5 68c0 1.33301 1.16699 12.5 3.5 33.5
s4.83301 34.167 7.5 39.5c18 39.333 43 74.833 75 106.5s67 52.5 105 62.5c6.66699 2 13.5 3.33301 20.5 4s14.833 0.666992 23.5 0s15.667 -1 21 -1s13.166 -1 23.499 -3l21 -4c3.66699 -0.666992 11.5 -2.33398 23.5 -5.00098s18.667 -4.33398 20 -5.00098
c58.667 -13.333 104 -62.333 136 -147c14 -38 22.667 -70.333 26 -97c0.666992 -11.333 1 -23.333 1 -36c0 -21.333 -1.33301 -44 -4 -68c-4.66699 -42 -19.334 -74.333 -44.001 -97c-10 -8.66699 -25.667 -20.667 -47 -36c-12 -8.66699 -26 -15.334 -42 -20.001
c-18 -5.33301 -35 -8 -51 -8c-24 0 -44.667 6 -62 18v-1c-0.666992 0.666992 -2.5 1.83398 -5.5 3.50098l-7 4c-1.66699 1 -4.16699 2.66699 -7.5 5s-5.83301 4.16602 -7.5 5.49902s-3.66699 3.33301 -6 6s-3.33301 4.83398 -3 6.50098s0.833008 3.83398 1.5 6.50098
c5.33301 3.33301 10.166 4.16602 14.499 2.49902s11 -5.5 20 -11.5s14.5 -9.33301 16.5 -10c18 -7.33301 36 -11 54 -11l12 1c26.667 4.66699 50 13.334 70 26.001c8.66699 5.33301 19.334 15 32.001 29s23 27.167 31 39.5s9.66699 19.166 5 20.499
c-1.33301 0 -4.66602 -2.83301 -9.99902 -8.5l-20 -20.5c-8 -8 -15 -13.667 -21 -17c-22.667 -13.333 -44.334 -24 -65.001 -32c-20 -7.33301 -37.333 -11 -52 -11c-10.667 0 -20 2 -28 6c-8.66699 4.66699 -16.667 11.834 -24 21.501s-12.5 18 -15.5 25
s-7.33301 18.167 -13 33.5s-9.16699 24.666 -10.5 27.999c-9.33301 23.333 -17 46.833 -23 70.5s-9.33301 50.834 -10 81.501v5c0 28.667 5.66699 51.667 17 69c2 2.66699 5 5.83398 9 9.50098s8.16699 6.83398 12.5 9.50098l12 7.5l9.5 6
c2.66699 1.66699 3.66699 2.83398 3 3.50098c-2 4 -9.66699 3.16699 -23 -2.5s-23 -12.5 -29 -20.5c-8 -10.667 -16 -28.334 -24 -53.001c-11.333 -32.667 -17 -59.334 -17 -80.001c0 -11.333 1.66699 -20.666 5 -27.999s12.166 -22.166 26.499 -44.499
s22.5 -41.833 24.5 -58.5c0.666992 -2.66699 3 -9.16699 7 -19.5s6.83301 -18.5 8.5 -24.5s0.833984 -11.333 -2.49902 -16c-5.33301 -2.66699 -10.333 -2 -15 2s-9.16699 10.333 -13.5 19l-7.5 15c-0.666992 1.33301 -4.16699 6.16602 -10.5 14.499l-12 16
c-1.66699 2.33301 -4.83398 7.16602 -9.50098 14.499s-7.83398 13 -9.50098 17l-6.5 15.5c-2.66699 6.33301 -4.66699 12.5 -6 18.5s-2.33301 12.333 -3 19c-0.666992 5.33301 -1 11 -1 17c0 14.667 1.33301 30.667 4 48c3.33301 24 9 48.167 17 72.5s20.333 44.333 37 60
s36 22.834 58 21.501c33.333 -3.33301 56.666 -8.33301 69.999 -15c18 -8 33 -17.333 45 -28s21.667 -23.167 29 -37.5s12.333 -25.833 15 -34.5s6 -21 10 -37c2 -10 3.33301 -20.333 4 -31c0 -20.667 -4.66699 -41 -14 -61c-10.667 -23.333 -27.334 -35.333 -50.001 -36
c-6 0 -12.667 1 -20 3c-30 8 -52.333 28.333 -67 61c-8.66699 19.333 -12 38.666 -10 57.999c0.666992 8 3 10.333 7 7c2.66699 -2.66699 5.33398 -6.83398 8.00098 -12.501s5 -12.167 7 -19.5s3.33301 -11.666 4 -12.999c7.33301 -16 17 -30 29 -42
c19.333 -18 36.666 -23 51.999 -15c17.333 8.66699 28 24.334 32 47.001c1.33301 8 2 16 2 24c0 14 -2 28 -6 42c-6.66699 22 -15.334 39.667 -26.001 53c-11.333 14.667 -23.333 26.667 -36 36c-13.333 8.66699 -25 14 -35 16c-7.33301 1.33301 -17 0.666016 -29 -2.00098
c-16 -4 -29.333 -13.333 -40 -28c-12 -16 -18.333 -36.333 -19 -61s0.666016 -45 3.99902 -61s9.33301 -37 18 -63c10.667 -35.333 24 -56.666 40 -63.999c28 -10.667 51.667 -21.667 71 -33c13.333 -8.66699 30.666 -8.66699 51.999 0c11.333 4.66699 20 8.66699 26 12
c4 2 14.667 11.667 32 29c16.667 19.333 26.667 40.666 30 63.999c1.33301 9.33301 2 19 2 29c0 38.667 -11 85 -33 139c-22.667 52 -58 88.333 -106 109c-11.333 4.66699 -42.333 10.334 -93 17.001c-6 0.666992 -12 1 -18 1c-51.333 0 -102 -28.333 -152 -85
c-32 -36.667 -49.667 -72.334 -53 -107.001c-0.666992 -7.33301 -2.16699 -19 -4.5 -35s-4 -30 -5 -42s-0.833008 -24 0.5 -36c4.66699 -74 26.667 -137 66 -189c6.66699 -8.66699 17.334 -21.5 32.001 -38.5s25.334 -29.833 32.001 -38.5c15.333 -20 31 -33.667 47 -41
c48 -20.667 101.667 -31 161 -31h28c70.667 4 130.334 24.333 179.001 61c52 38 83.667 90 95 156c7.33301 48.667 11 89 11 121c0 5.33301 -0.666992 19 -2 41s-4 48.333 -8 79s-8.33301 52 -13 64c-2.66699 7.33301 -11.667 25.333 -27 54s-23.333 43.667 -24 45
c-4 7.33301 -8.33301 17.166 -13 29.499s-9.33398 23.333 -14.001 33s-10.334 19.167 -17.001 28.5c-8 10 -23.333 22 -46 36c-32.667 20.667 -50 29 -52 25c-1.33301 -2 0.833984 -5.16699 6.50098 -9.5s13.5 -9.83301 23.5 -16.5s17 -11.667 21 -15
c24.667 -19.333 43 -42.333 55 -69c5.33301 -12 16.833 -32.167 34.5 -60.5s29.167 -51.166 34.5 -68.499c14 -46 22.667 -100.667 26 -164c1.33301 -26 2 -49.667 2 -71c0 -45.333 -3.33301 -79.333 -10 -102c-12.667 -42 -35.834 -78 -69.501 -108
s-73.167 -52.333 -118.5 -67c-28.667 -9.33301 -59 -14 -91 -14c-24 0 -48.667 2.66699 -74 8c-56.667 12 -88.667 20 -96 24c-10.667 5.33301 -14.334 11 -11.001 17s12.666 7 27.999 3c34.667 -9.33301 61 -16 79 -20c30.667 -7.33301 57.334 -11 80.001 -11
c9.33301 0 17.666 0.666992 24.999 2c60.667 8.66699 113.834 33 159.501 73s70.5 89 74.5 147c1.33301 22.667 2 44.667 2 66c0 73.333 -8 138.666 -24 195.999c-2.66699 11.333 -6.66699 22 -12 32s-12 21.333 -20 34l-18 29c-3.33301 6 -8.16602 15.833 -14.499 29.5
s-12.333 25.334 -18 35.001s-12.5 18.5 -20.5 26.5c-44 44 -122.667 82.333 -236 115c-21.333 6 -44.333 9 -69 9c-49.333 0 -106 -12 -170 -36c-8 -3.33301 -16.167 -7 -24.5 -11s-15.5 -7.66699 -21.5 -11s-13.833 -8.5 -23.5 -15.5s-16.5 -11.833 -20.5 -14.5
s-11.333 -8.5 -22 -17.5l-19 -16l-21 -18c-12 -10.333 -18.333 -15.833 -19 -16.5c-32 -25.333 -48 -32 -48 -20zM1114.03 1325.98c0 4.66699 0.498047 9.66699 1.49805 15s2.66699 9.83301 5 13.5s4.5 5.5 6.5 5.5c2.66699 0 4.33398 -1.66699 5.00098 -5
s1.33398 -9.5 2.00098 -18.5s1 -14.833 1 -17.5c1.33301 -18 0 -27 -4 -27c-10 0 -15.667 11.333 -17 34zM1135.03 1861.98c0 2 0.670898 4.33203 2.00391 6.99902c22 43.333 87 71.333 195 84c16 2 32.333 3 49 3c26 0 52.667 -2.33301 80 -7
c21.333 -4 37.333 -7.66699 48 -11c4.66699 -1.33301 12.667 -4.16602 24 -8.49902s20.666 -7.5 27.999 -9.5s11 -2.33301 11 -1c0 2.66699 -20.667 11 -62 25c-44.667 15.333 -88.334 23 -131.001 23c-12 0 -23.667 -0.666992 -35 -2c-62 -6.66699 -99.667 -12 -113 -16
c-2 -0.666992 -9 -4 -21 -10s-21.667 -8.33301 -29 -7s-10.166 4.66602 -8.49902 9.99902s5.5 9.66602 11.5 12.999c6.66699 4 21 9 43 15s40.333 9.66699 55 11c69.333 6.66699 109.333 10 120 10c44 -1.33301 94.333 -14.333 151 -39c4.66699 -2 15 -5.83301 31 -11.5
s29.5 -11.167 40.5 -16.5s20.5 -11.333 28.5 -18c18 -14.667 44.5 -32.167 79.5 -52.5s65.333 -40.833 91 -61.5s46.5 -45 62.5 -73c12 -22 26 -57 42 -105l28 -75c14 -37.333 22.333 -61 25 -71c5.33301 -17.333 9.66602 -38 12.999 -62
c0.666992 -3.33301 1 -6.66602 1 -9.99902c-0.666992 -6 -1.66699 -12 -3 -18c-2.66699 -10 -8 -10.667 -16 -2c-2.66699 2.66699 -5 15.334 -7 38.001c-2 19.333 -5.33301 36 -10 50c-0.666992 2.66699 -15.667 43 -45 121c-8.66699 24 -15 43.667 -19 59
c-6.66699 21.333 -13.334 37.333 -20.001 48c-4 6 -9.66699 15.167 -17 27.5s-14 22.5 -20 30.5s-13.333 15.667 -22 23c-20.667 17.333 -56.667 41.333 -108 72c-42.667 25.333 -80 40.666 -112 45.999c-14 2.66699 -33.5 7.66699 -58.5 15s-42.5 12.333 -52.5 15
c-34.667 8.66699 -69.334 13 -104.001 13c-54 0 -108 -10.333 -162 -31c-16.667 -6.66699 -29.667 -13.667 -39 -21c-9.33301 -8 -18 -16 -26 -24c-5.33301 -5.33301 -10.333 -6.66602 -15 -3.99902c-2.66699 2 -4 4.66699 -4 8zM1203.03 1981.98
c0 1.33301 0.334961 2.99609 1.00195 4.99609c2 8 9.33301 12.667 22 14c6.66699 1.33301 18 4.33301 34 9s28.333 7.66699 37 9c12.667 2 31 3 55 3s42.333 -0.333008 55 -1s21.667 0 27 2c0.666992 1.33301 0.333984 2.33301 -0.999023 3s-3.33301 1.33398 -6 2.00098
s-5.5 1.33398 -8.5 2.00098s-6.66699 1.16699 -11 1.5s-8.16602 0.5 -11.499 0.5s-7 0.166992 -11 0.5s-6.66699 0.5 -8 0.5c-4 0 -11.333 0.5 -22 1.5s-18.834 1.5 -24.501 1.5s-12.834 -0.166992 -21.501 -0.5s-16.834 -1.16602 -24.501 -2.49902
s-15.167 -3.33301 -22.5 -6c-0.666992 0 -2.5 -0.833008 -5.5 -2.5s-5.66699 -2.83398 -8 -3.50098s-5 -1.16699 -8 -1.5s-4.5 0.666992 -4.5 3s0.333008 5.5 1 9.5c3.33301 10.667 16.666 17.667 39.999 21.001c17.333 1.33301 34.666 2 51.999 2
c32.667 0 66.667 -2.66699 102 -8c22 -3.33301 40.667 -10.666 56 -21.999c10 -8 28 -16.667 54 -26c78 -26.667 164.333 -71.334 259 -134.001c40 -26.667 75.5 -60 106.5 -100s53.167 -82 66.5 -126c10.667 -36 17.667 -63.333 21 -82v-2c1.33301 -10 2 -18.333 2 -25
c0 -17.333 -5 -23.333 -15 -18c-3.33301 2 -5.83301 6.5 -7.5 13.5s-2.66699 15 -3 24s-0.833008 14.833 -1.5 17.5c-4.66699 23.333 -10.667 46.333 -18 69c-12 40 -33 78.667 -63 116s-63 68.333 -99 93c-99.333 65.333 -186 110.333 -260 135
c-16.667 5.33301 -33.5 9.66602 -50.5 12.999s-32.167 5.83301 -45.5 7.5s-28.5 2.33398 -45.5 2.00098s-30.167 -0.666016 -39.5 -0.999023s-22.166 -2 -38.499 -5l-32.5 -6c-5.33301 -1 -16 -3.5 -32 -7.5s-24.667 -6 -26 -6c-7.33301 -2 -12 -2 -14 0
c-1.33301 1.33301 -2 3 -2 5zM1280.04 2074.98c0 6 5.66504 10.334 16.998 13.001c12.667 2.66699 32.334 3.33398 59.001 2c37.333 -3.33301 69.333 -10 96 -20c17.333 -6.66699 48 -17.667 92 -33s78 -28 102 -38c88 -36.667 157 -79 207 -127
c42 -40.667 67.333 -66.334 76 -77.001c11.333 -14 21 -29.333 29 -46c4.66699 -9.33301 7 -17.333 7 -24c0 -2.66699 -0.333008 -5 -1 -7c-1.33301 -6 -6 -6.66699 -14 -2c-3.33301 2 -7.66602 8.83301 -12.999 20.5s-8 17.834 -8 18.501
c-6.66699 11.333 -13.667 21 -21 29c-18.667 22 -44.667 48.333 -78 79c-34 32.667 -85 65 -153 97c-37.333 18 -78 33.667 -122 47c-12 4 -28.667 11.167 -50 21.5s-38 17.166 -50 20.499c-38 10.667 -70.333 17 -97 19c-26 1.33301 -47 1.33301 -63 0
c-10 -1.33301 -15 1 -15 7zM1313.03 2105.98c0 7.33301 4.66699 12.668 14 16.002c1.33301 0.666992 3 1 5 1c7.33301 0.666992 14.666 1.66699 21.999 3c14 0 29 -2 45 -6c32.667 -6 77 -19.333 133 -40c23.333 -8.66699 55.833 -22.167 97.5 -40.5l83.5 -36.5
c27.333 -10.667 41.333 -15.667 42 -15c1.33301 2 -9 9 -31 21l-6 3c-68 34.667 -136.667 66 -206 94c-47.333 19.333 -86.333 29.333 -117 30c-20.667 0 -32 -0.333008 -34 -1c-9.33301 -2.66699 -14.166 -0.5 -14.499 6.5s4.5 12.167 14.5 15.5
c8.66699 2.66699 18.667 4.16699 30 4.5s20.833 -0.166992 28.5 -1.5s18.334 -4 32.001 -8s23 -7 28 -9l28.5 -11c45.333 -16.667 94.666 -39 147.999 -67c6.66699 -3.33301 20.334 -9.83301 41.001 -19.5s37.834 -18.334 51.501 -26.001s26.167 -16.167 37.5 -25.5
c4 -3.33301 11 -9.66602 21 -18.999s18.333 -16.833 25 -22.5s10.667 -8.16699 12 -7.5c3.33301 2.66699 -3.66699 13.667 -21 33c-16.667 20 -41.334 40 -74.001 60c-21.333 12.667 -44.666 24.834 -69.999 36.5c-25.333 11.667 -54 24 -86 37s-56.333 23.167 -73 30.5
c-24.667 10.667 -41.334 17.334 -50.001 20c-2 0.666992 -7.33301 1.66699 -16 3c-8.66699 0.666992 -16 2.33398 -22 5c-6.66699 2.66699 -10 7 -10 13c0 5.33301 4.33301 8 13 8c15.333 0 44 -8.33301 86 -25l54 -25c26 -12 46.333 -21 61 -27
c6 -2.66699 18.333 -7.66699 37 -15s34.167 -13.833 46.5 -19.5s24.166 -11.834 35.499 -18.501c26.667 -15.333 50 -34.333 70 -57s41.667 -51.334 65 -86.001c22.667 -34.667 39 -61 49 -79c6 -10.667 9 -18.667 9 -24c0 -2 -0.333008 -3.33301 -1 -4
c-7.33301 -11.333 -15.333 -8 -24 10c-13.333 30 -33.333 56.5 -60 79.5s-56.667 41.5 -90 55.5c-140 58.667 -223.667 93 -251 103c-2.66699 1.33301 -10.167 4.16602 -22.5 8.5c-12.333 4.33301 -20.5 7.33301 -24.5 9s-11.667 4.33398 -23 8
c-11.333 3.66699 -20 6.16699 -26 7.5l-24.5 5.5c-10.333 2.33301 -19 3.66602 -26 4c-7 0.333008 -15 0.333008 -24 0s-17.5 -1.16602 -25.5 -2.5c-8.66699 -1.33301 -13 1 -13 7zM1388.03 1301.98c0 6.66699 2.33398 9.99902 7.00098 9.99902c2 0 5.66699 -5.5 11 -16.5
l18.5 -39.5c7 -15.333 11.833 -25.333 14.5 -30c16.667 -30 38.667 -51.333 66 -64c28.667 -13.333 56 -20 82 -20c21.333 0 41.666 4.33301 60.999 13c24.667 11.333 40.667 21 48 29c5.33301 6.66699 11.333 7.66699 18 3c5.33301 -3.33301 6 -7.66602 2 -12.999
c-10 -14 -28 -26.333 -54 -37s-48.333 -16.334 -67 -17.001h-3c-47.333 0 -92 17 -134 51c-22 16.667 -38.667 39.334 -50 68.001c-13.333 30.667 -20 51.667 -20 63zM1415.03 440.981c0 -28.667 10.167 -53 30.5 -73s44.833 -30 73.5 -30s53 10 73 30s30 44.333 30 73
s-10 53 -30 73s-44.333 30 -73 30s-53 -10 -73 -30c-20.667 -20 -31 -44.333 -31 -73zM1415.03 1356.98c4.66699 -3.33301 9 -9 13 -17c2.66699 -3.33301 4.83398 -7.33301 6.50098 -12s1.83398 -7.33398 0.500977 -8.00098c-1.33301 0 -2.33301 0.333008 -3 1
c0.666992 -0.666992 1.66699 -1 3 -1c1.33301 0.666992 1.16602 3.33398 -0.500977 8.00098s-3.83398 8.66699 -6.50098 12c-4 8 -8.33301 13.667 -13 17zM1504.03 2193.98c0 2 1.66797 4.66797 5.00098 8.00098c1.33301 2 4.33301 3 9 3c5.33301 0 13 -1.33301 23 -4
c16.667 -4.66699 38.667 -13.334 66 -26l65 -31l65 -31c42.667 -20.667 75.334 -46.334 98.001 -77c3.33301 -4.66699 9.66602 -11.667 18.999 -21s16 -17 20 -23s6 -10.667 6 -14c0 -2.66699 -1 -4.66699 -3 -6c-4.66699 -3.33301 -10.667 -0.666016 -18 8.00098l-22 22.5
c-14 14.333 -24 25.166 -30 32.499c-18.667 21.333 -47.667 41.666 -87 60.999l-130 62c-24.667 12 -49.334 20.667 -74.001 26c-8 2.66699 -12 6 -12 10zM1523.04 1493.98c0.666992 2 0.99707 4.00391 0.99707 6.00391c1.33301 12 6 19.333 14 22c14 5.33301 25 1 33 -13
s15 -31.333 21 -52s12 -33.334 18 -38.001c2.66699 -2 4.33398 -0.666992 5.00098 4c0.666992 5.33301 0.333984 10.666 -0.999023 15.999c-0.666992 10.667 -4.33398 22.667 -11.001 36s-13 24.666 -19 33.999s-8.66699 15 -8 17
c5.33301 9.33301 11.833 10.666 19.5 3.99902s13.5 -14 17.5 -22c10.667 -21.333 17.667 -39 21 -53c2.66699 -11.333 4.33398 -23 5.00098 -35s-1.83301 -23.833 -7.5 -35.5s-15.167 -17.5 -28.5 -17.5c-8 0 -17 4.83301 -27 14.5s-19 21.5 -27 35.5
c-7.33301 14 -13.666 28.333 -18.999 43c-4 12 -6.33301 23.333 -7 34zM1542.03 1241.99c6.66699 -3.33301 13.167 -4.66602 19.5 -3.99902s10.166 3.66699 11.499 9c0.666992 3.33301 -2.33301 7 -9 11c6.66699 -4 9.66699 -7.66699 9 -11
c-1.33301 -5.33301 -5.16602 -8.33301 -11.499 -9s-12.833 0.666016 -19.5 3.99902zM1543.03 1490.99c0 -4.66699 0.998047 -10.6689 2.99805 -18.002c4 -16 10 -31.333 18 -46c12 -20 24.333 -32.667 37 -38c4.66699 -2 7.33398 -1.66699 8.00098 1
c0.666992 2 -1.66602 5.33301 -6.99902 10s-11.5 11.5 -18.5 20.5s-11.833 19.167 -14.5 30.5c0 0.666992 -1.33301 7.33398 -4 20.001s-5.5 21.5 -8.5 26.5s-6.5 6.16699 -10.5 3.5c-2 -1.33301 -3 -4.66602 -3 -9.99902zM1624.03 2190.98c0 6 8.33203 9 24.999 9
c15.333 0 32 -6.33301 50 -19c7.33301 -5.33301 23 -18.333 47 -39c6.66699 -5.33301 7.33398 -10 2.00098 -14c-4.66699 -3.33301 -11 -2.66602 -19 2c-34 21.333 -63 36.666 -87 46c-12 4.66699 -18 9.66699 -18 15zM1794.03 1010.98c0 4 1.66797 7.33301 5.00098 10
c37.333 35.333 57.666 54.333 60.999 57l-3 -2l5 3c2.66699 2 5 3 7 3c3.33301 0 5.33301 -3 6 -9l-3 -15c-2.66699 -6.66699 -11 -17 -25 -31c-17.333 -17.333 -31 -26 -41 -26c-8 0 -12 3.33301 -12 10z" />
    <glyph glyph-name="P" unicode="P" 
d="M527 685c0 -118.667 34.1719 -211.334 102.505 -278.001s158.166 -100 269.499 -100h1218c110.667 0 200.5 33.333 269.5 100s103.5 159.334 103.5 278.001c0 82 -6.16699 171.833 -18.5 269.5s-35.833 188.5 -70.5 272.5s-83.334 154.167 -146.001 210.5
s-145 84.5 -247 84.5c-11.333 0 -30.833 -10.667 -58.5 -32s-62.667 -44.833 -105 -70.5s-91.833 -48.834 -148.5 -69.501s-119 -31 -187 -31c-68.667 0 -131.334 10.333 -188.001 31s-106.334 43.834 -149.001 69.501s-77.834 49.167 -105.501 70.5s-46.5 32 -56.5 32
c-102 0 -184.667 -28.167 -248 -84.5s-112.5 -126.5 -147.5 -210.5s-58.333 -174.833 -70 -272.5s-17.5 -187.5 -17.5 -269.5zM973.005 1989c0 -78 14 -151 42 -219s66.167 -127.333 114.5 -178s105.166 -90.667 170.499 -120s135 -44 209 -44s143.333 14.667 208 44
s121.167 69.333 169.5 120s86.666 110 114.999 178s42.5 141 42.5 219c0 76.667 -14.167 149 -42.5 217s-66.666 127.5 -114.999 178.5s-104.833 91.333 -169.5 121s-134 44.5 -208 44.5s-143.667 -14.833 -209 -44.5s-122.166 -70 -170.499 -121
s-86.5 -110.5 -114.5 -178.5s-42 -140.333 -42 -217z" />
    <glyph glyph-name="Q" unicode="Q" 
d="M446 1732c0 -12 3.50195 -23.333 10.502 -34s14.5 -20 22.5 -28l472 -460l-111 -649c-1.33301 -8.66699 -2.33301 -17.334 -3 -26.001c0 -17.333 4.33301 -32.5 13 -45.5s22.667 -19.5 42 -19.5c17.333 0 34.666 5 51.999 15l583 307l583 -307c16 -10 33.333 -15 52 -15
s32.167 6.5 40.5 19.5s12.5 28.167 12.5 45.5c0 8.66699 -0.666992 17.334 -2 26.001l-111 649l471 460c8 8 15.667 17.333 23 28s11 22 11 34c0 19.333 -8.33301 33.5 -25 42.5s-32.667 14.833 -48 17.5l-652 95l-292 590c-6 12 -14.333 24 -25 36s-23.334 18 -38.001 18
c-15.333 0 -28.333 -6 -39 -18s-19 -24 -25 -36l-292 -590l-652 -95c-16 -2.66699 -32.167 -8.5 -48.5 -17.5s-24.5 -23.167 -24.5 -42.5z" />
    <glyph glyph-name="R" unicode="R" 
d="M203 2416c0 -26.667 9.5 -49.5 28.5 -68.5s41.833 -28.5 68.5 -28.5h312l269 -1255l-24.5 -45.5c-10.333 -19 -20.5 -38.667 -30.5 -59s-18.833 -40 -26.5 -59s-11.5 -34.167 -11.5 -45.5c0 -26.667 9.66699 -49.667 29 -69s42.333 -29 69 -29h1562
c26 0 48.667 9.66699 68 29s29 42.333 29 69c0 26 -9.66699 48.667 -29 68s-42 29 -68 29h-1403l23.5 47c8.33301 16 12.5 33 12.5 51c0 17.333 -2.66699 35.166 -8 53.499s-9.33301 36.166 -12 53.499l1593 186c24.667 2.66699 45.167 13.334 61.5 32.001
s24.5 40.334 24.5 65.001v781c0 26 -9.66699 48.833 -29 68.5s-42 29.5 -68 29.5h-1832c-4 18 -7.66699 38.167 -11 60.5s-8.83301 43.5 -16.5 63.5s-18.5 36.833 -32.5 50.5s-34 20.5 -60 20.5h-391c-26.667 0 -49.5 -9.83301 -68.5 -29.5s-28.5 -42.5 -28.5 -68.5z
M788 562c0 -54 19.167 -100 57.5 -138s84.5 -57 138.5 -57s100 19 138 57s57 84 57 138s-19 100 -57 138s-84 57 -138 57s-100.167 -19 -138.5 -57s-57.5 -84 -57.5 -138zM2155 562c0 -54 19 -100 57 -138s84 -57 138 -57s100 19 138 57s57 84 57 138s-19 100 -57 138
s-84 57 -138 57s-100 -19 -138 -57s-57 -84 -57 -138z" />
    <glyph glyph-name="S" unicode="S" 
d="M397 1212v1113c0 30 10.833 55.833 32.5 77.5s47.834 32.5 78.501 32.5h1550c30 0 55.667 -10.833 77 -32.5s32 -47.5 32 -77.5v-580v-87v-446c0 -30 -10.667 -55.833 -32 -77.5s-47 -32.5 -77 -32.5h-835l-105 -55l-33 -17l-485 -259v259v17v55h-92
c-30.667 0 -56.834 10.833 -78.501 32.5s-32.5 47.5 -32.5 77.5zM508 1212h92h52h57v-90v-20v-55v-17v-74l141 74l33 17l104 55l36 20l171 90h118h118h628v387v61v32v53v580h-1550v-1110v-3zM1057 819c0 -40.667 15.167 -75.667 45.5 -105s66.833 -44 109.5 -44h824l174 -76
l33 -19l101 -55l34 -20l135 -76v76v20v55v19v76h94c42 0 78.333 14.667 109 44s46 64.333 46 105v884c0 40 -15.333 74.667 -46 104s-67 44 -109 44h-1395c-42.667 0 -79.167 -14.667 -109.5 -44s-45.5 -64 -45.5 -104v-451v-40v-393z" />
    <glyph glyph-name="T" unicode="T" 
d="M395 1276c0 -12.667 3.83203 -23.9971 11.499 -33.9971s17.834 -16 30.501 -18l264 -39c14 -50 33.667 -98 59 -144l-151 -198c-7.33301 -10 -11 -21 -11 -33c-1.33301 -10.667 1.66699 -21.667 9 -33c30 -42 67.833 -84.5 113.5 -127.5l126.5 -115.5
c10.667 -10.667 22.667 -15.667 36 -15c13.333 -0.666992 25.333 3.33301 36 12l204 155c42 -22 85.667 -40 131 -54l41 -266c1.33301 -12.667 6.83301 -23 16.5 -31s21.167 -12 34.5 -12h322c12.667 0 23.834 3.66699 33.501 11s16.167 17 19.5 29
c11.333 43.333 19.666 88 24.999 134s11 91 17 135c45.333 14.667 89 33 131 55l199 -156c11.333 -8 24 -12 38 -12c12 0 31.667 11.167 59 33.5s56 48.166 86 77.499s57.833 58.166 83.5 86.499s42.834 48.5 51.5 60.5c8.66699 10 13 21 13 33
c0 13.333 -4.66699 25.333 -14 36c-54 64 -105.667 130.667 -155 200c22 41.333 40.667 85 56 131l267 40c11.333 2 21.333 8.5 30 19.5s13 22.167 13 33.5v321c0 12 -4.33301 22.833 -13 32.5s-19 15.834 -31 18.501l-265 42c-13.333 48 -32.666 95 -58 141
c24 34 49 67 75 99l76 98c8 10 12 21.333 12 34c0.666992 11.333 -2.66602 22 -10 32c-30 42 -67.833 84.5 -113.5 127.5l-125.5 118.5c-10.667 9.33301 -23 14 -37 14s-25.667 -4.33301 -35 -13l-205 -155c-42 22 -85.333 40 -130 54l-40 266
c-2 12 -8.16699 22.167 -18.5 30.5s-21.833 12.5 -34.5 12.5h-322c-13.333 0 -24.5 -3.83301 -33.5 -11.5s-14.833 -17.167 -17.5 -28.5c-12 -44 -20.667 -88.833 -26 -134.5l-16 -134.5c-46 -14.667 -90.333 -33 -133 -55l-200 155c-10.667 9.33301 -23 14 -37 14
c-12.667 0 -32.834 -11.333 -60.501 -34s-56.5 -48.834 -86.5 -78.5c-30 -29.667 -57.667 -58.5 -83 -86.5s-42 -48 -50 -60c-8.66699 -10 -13 -21 -13 -33c0 -13.333 4.66699 -25 14 -35c54 -64.667 105.667 -131 155 -199c-23.333 -42.667 -42 -87 -56 -133l-269 -41
c-11.333 -2.66699 -20.666 -9.33398 -27.999 -20.001s-11 -21.334 -11 -32.001v-320zM1136 1433c0 50.667 9.5 98.334 28.5 143.001s45.5 83.834 79.5 117.501s73.5 60.334 118.5 80.001s93.167 29.5 144.5 29.5c50.667 0 98.334 -9.83301 143.001 -29.5
s84 -46.334 118 -80.001s60.833 -72.834 80.5 -117.501s29.5 -92.334 29.5 -143.001c0 -51.333 -9.83301 -99.5 -29.5 -144.5s-46.5 -84.333 -80.5 -118s-73.333 -60 -118 -79s-92.334 -28.5 -143.001 -28.5c-51.333 0 -99.5 9.5 -144.5 28.5s-84.5 45.333 -118.5 79
s-60.5 73 -79.5 118s-28.5 93.167 -28.5 144.5z" />
    <glyph glyph-name="U" unicode="U" 
d="M321 1272c0 12.667 1.33105 25.333 3.99805 38c6 31.333 16.5 61 31.5 89s37.833 52.667 68.5 74c23.333 21.333 52 36 86 44c22 5.33301 43.333 8 64 8c11.333 -0.666992 22.333 -1.66699 33 -3c30.667 -4 61.334 -14.333 92.001 -31s55.334 -39 74.001 -67l426 -556
l1063 1707c21.333 30.667 45 55.5 71 74.5s54.667 31.833 86 38.5c18.667 4 37.334 6 56 6c13.333 0 26.666 -1 40 -3c33.333 -4.66699 65.333 -16 96 -34c27.333 -19.333 51 -42.333 71 -69s33 -55.334 39 -86c4 -19.333 6 -39.666 6 -61c0 -11.333 -0.666992 -23 -2 -35
c-3.33301 -33.333 -15.666 -65 -37 -95l-1257 -2021c-12 -16.667 -25 -32.5 -39 -47.5s-30.333 -27.167 -49 -36.5s-36.834 -17 -54.501 -23s-38.5 -10 -62.5 -12c2.66699 0 3 0 1 0h-3h-3c-2.66699 0 -3.33398 0 -2.00098 0h-2c-19.333 0 -39 2.33301 -59 7
s-37.667 11.167 -53 19.5s-31.166 19 -47.499 32s-29.166 27.167 -38.499 42.5l-648 849c-18.667 28 -32.667 58.667 -42 92c-5.33301 20 -8.33301 39.667 -9 59z" />
    <glyph glyph-name="V" unicode="V" 
d="M255 593v1619c0 134 47.5 248.5 142.5 343.5s209.5 142.5 343.5 142.5h1619c134 0 248.5 -47.5 343.5 -142.5s142.5 -209.5 142.5 -343.5v-1619c0 -134 -47.5 -248.5 -142.5 -343.5s-209.5 -142.5 -343.5 -142.5h-1619c-134 0 -248.5 47.5 -343.5 142.5
s-142.5 209.5 -142.5 343.5zM631 2061c0 -57.333 19.8301 -105.5 59.4971 -144.5s91.5 -58.5 155.5 -58.5h2c66.667 0 120.334 19.5 161.001 58.5s61 87.167 61 144.5c-1.33301 58.667 -21.666 107.167 -60.999 145.5s-91.666 57.5 -156.999 57.5
s-118.5 -19.167 -159.5 -57.5s-61.5 -86.833 -61.5 -145.5zM653.997 529h390v1171h-390v-1171zM1258 529l390 -0.000976562v654c0 43.333 4 75 12 95c16.667 39.333 42 72.833 76 100.5s75.667 41.5 125 41.5c130 0 195 -88.333 195 -265v-626h390v672
c0 172.667 -41.167 303.334 -123.5 392.001s-190.833 133 -325.5 133c-152.667 0 -270 -65.667 -352 -197h3v171h-390c1.33301 -37.333 2 -153.5 2 -348.5s-0.666992 -469.167 -2 -822.5z" />
    <glyph glyph-name="W" unicode="W" 
d="M242 461v1875c0 88.667 31.667 164.834 95 228.5c63.333 63.667 139.333 95.5 228 95.5h1875c88.667 0 164.834 -31.833 228.5 -95.5c63.667 -63.667 95.5 -139.834 95.5 -228.5v-1875c0 -88.667 -31.833 -164.667 -95.5 -228s-139.834 -95 -228.5 -95h-1875
c-88.667 0 -164.667 31.667 -228 95s-95 139.333 -95 228zM522 528c0 -28 9.66602 -51.667 28.999 -71s43.333 -29 72 -29h1755c27.333 0 50.833 9.66699 70.5 29s29.5 43 29.5 71v1065h-221c21.333 -69.333 32 -141.333 32 -216c0 -137.333 -35 -264.333 -105 -381
s-165.167 -209 -285.5 -277s-251.833 -102 -394.5 -102c-215.333 0 -399.666 74.167 -552.999 222.5s-230 327.5 -230 537.5c0 74.667 11 146.667 33 216h-232v-1065zM998.999 1403.5c0 -135.667 49.5 -251.334 148.5 -347.001s217.833 -143.5 356.5 -143.5
c140.667 0 260.5 47.833 359.5 143.5s148.5 211.334 148.5 347.001s-49.5 251.5 -148.5 347.5s-218.833 144 -359.5 144c-138.667 0 -257.5 -48 -356.5 -144s-148.5 -211.833 -148.5 -347.5zM1966 1995c0 -32 11 -58.833 33 -80.5s48.667 -32.5 80 -32.5h286
c32 0 58.833 10.833 80.5 32.5s32.5 48.5 32.5 80.5v271c0 30.667 -10.833 57.167 -32.5 79.5s-48.5 33.5 -80.5 33.5h-286c-31.333 0 -58 -11.167 -80 -33.5s-33 -48.833 -33 -79.5v-271z" />
    <glyph glyph-name="a" unicode="a" 
d="M254 686c0 -64.667 12.501 -126.665 37.501 -185.998s58.833 -110.333 101.5 -153s93.5 -76.667 152.5 -102s120.833 -38 185.5 -38h549l-16 2v1114h-158c-15.333 0 -25 0.666992 -29 2c-6 0 -11.833 2.5 -17.5 7.5s-8.5 11.5 -8.5 19.5v286
c0 15.333 5.5 28.833 16.5 40.5s23.833 17.5 38.5 17.5h158v141c0 332 172 498 516 498c110 0 219 -14.333 327 -43c14 -4 25 -12 33 -24s10.667 -24.667 8 -38l-37 -274c-2.66699 -16 -10.5 -28.333 -23.5 -37s-26.833 -11.334 -41.5 -8.00098
c-62.667 13.333 -127.667 20 -195 20c-46.667 0 -76.334 -6.83301 -89.001 -20.5s-19 -44.834 -19 -93.501v-121h313c15.333 0 28.5 -6.16699 39.5 -18.5s15.5 -26.833 13.5 -43.5l-20 -272c-2 -26 -19.667 -39 -53 -39h-293v-1114c0 -1.33301 0.666992 -2 2 -2h582
c64.667 0 126.667 12.667 186 38s110.333 59.333 153 102s76.667 93.667 102 153s38 121.333 38 186v1595c0 86.667 -21.333 166.667 -64 240s-100.834 131.333 -174.5 174c-73.667 42.667 -153.834 64 -240.501 64h-1596c-86.667 0 -166.667 -21.333 -240 -64
s-131.166 -100.667 -173.499 -174s-63.5 -153.333 -63.5 -240v-1595z" />
    <glyph glyph-name="b" unicode="b" 
d="M88 1159c0 -121.333 30.1689 -233.833 90.502 -337.5s142.333 -185.667 246 -246s216.167 -90.5 337.5 -90.5h1636c104 0 200.333 25.833 289 77.5s159 121.834 211 210.501s78 185.334 78 290.001c0 134 -42 253.667 -126 359s-191 173.333 -321 204
c41.333 64.667 62 133.667 62 207c0 105.333 -37.833 195.833 -113.5 271.5s-166.167 113.5 -271.5 113.5c-94.667 0 -178 -31.333 -250 -94c-60 144 -154.5 259.833 -283.5 347.5s-272.167 131.5 -429.5 131.5c-104.667 0 -204.5 -20.333 -299.5 -61
s-176.833 -95.334 -245.5 -164.001s-123.334 -150.5 -164.001 -245.5s-61 -194.833 -61 -299.5c0 -3.33301 0.333008 -12.5 1 -27.5s1 -27.833 1 -38.5c-116.667 -55.333 -210.334 -137.833 -281.001 -247.5s-106 -229.834 -106 -360.501z" />
    <glyph glyph-name="c" unicode="c" 
d="M309 1526c0 -134 40.166 -260.668 120.499 -380.001s191.833 -221 334.5 -305c-28 -62.667 -53.333 -109 -76 -139c-18 -23.333 -31.667 -39.666 -41 -48.999l-44 -51c-25.333 -28 -38.333 -42.667 -39 -44c0 -0.666992 -0.666992 -1.66699 -2 -3s-2.33301 -3 -3 -5
c-2 -2 -3.66699 -3.5 -5 -4.5s-2.33301 -1.83301 -3 -2.5l-10 -10c-2 -2 -3.66699 -4.83301 -5 -8.5s-2.66602 -6.5 -3.99902 -8.5c-3.33301 -11.333 -5 -18 -5 -20c0 -6.66699 0.666992 -10.667 2 -12c2.66699 -14.667 9.5 -26.834 20.5 -36.501s23.167 -14.5 36.5 -14.5h5
c83.333 15.333 131.333 25 144 29c172.667 44.667 331.667 117.334 477 218.001c92.667 -18 192 -27 298 -27c217.333 0 419 39 605 117c185.333 78.667 331.166 185 437.5 319c106.333 134 159.5 279.667 159.5 437c0 159.333 -53 305.333 -159 438
c-106.667 134.667 -252.834 241 -438.5 319c-185.667 78 -387.167 117 -604.5 117c-213.333 0 -413.666 -38.333 -600.999 -115c-186.667 -78.667 -333.334 -185.334 -440.001 -320c-106.667 -134.667 -160 -281 -160 -439z" />
    <glyph glyph-name="e" unicode="e" 
d="M467 836c0 -53.333 18.999 -98.832 56.999 -136.499s84 -56.5 138 -56.5h1771c52.667 0 98 18.833 136 56.5s57 83.167 57 136.5v956c-40 -42 -79.667 -76.667 -119 -104l-602 -416c-66.667 -48.667 -103 -75.334 -109 -80.001
c-35.333 -22 -76.166 -41.833 -122.499 -59.5s-88.166 -26.5 -125.499 -26.5h-4c-38.667 0 -82.334 10.333 -131.001 31c-30 12 -57.5 24.833 -82.5 38.5s-45.333 26 -61 37l-81.5 59.5c-106.667 78 -306 216.667 -598 416c-46.667 30 -87.667 64.667 -123 104v-956z
M466.999 2120c0 -47.333 21.1689 -100.667 63.502 -160s90.166 -107 143.499 -143c14.667 -9.33301 97.334 -66.666 248.001 -171.999l183.5 -127.5l131.5 -92.5c16 -12 33 -24 51 -36c35.333 -26 78.333 -54 129 -84c45.333 -28.667 87.666 -43 126.999 -43h4
c40 0 83.667 14.333 131 43c52 32 93.667 60 125 84c30 20 47 32 51 36l200 139l366 253c61.333 42.667 110.833 93.167 148.5 151.5s56.5 117.5 56.5 177.5c0 53.333 -19 98.833 -57 136.5s-83.333 56.5 -136 56.5h-1771c-60.667 0 -108.334 -20.333 -143.001 -61
s-52 -93.334 -52 -158.001z" />
    <glyph glyph-name="f" unicode="f" 
d="M414 2097c0 -54 8 -112.002 24 -174.002c12.667 -44 31.334 -96 56.001 -156c15.333 -41.333 24 -67 26 -77c34 -93.333 78.333 -183.666 133 -270.999c82 -131.333 195.667 -267.166 341 -407.499s286.333 -252.166 423 -335.499
c81.333 -50.667 173.666 -93.667 276.999 -129c11.333 -2 37.333 -11.667 78 -29c62.667 -23.333 117.667 -41 165 -53c56 -15.333 114 -23 174 -23c46.667 0 97.167 7.66699 151.5 23s104 34.833 149 58.5s84.667 49.667 119 78s57.166 55.166 68.5 80.499
c12.667 26 24 61.667 34 107s15 82 15 110c0 12.667 -1.33301 23 -4 31c-5.33301 18.667 -45.666 46.667 -121 84l-37.5 20.5c-19 10.333 -34.5 18.5 -46.5 24.5l-188 102c-10.667 10.667 -23.667 20.334 -39 29.001c-44.667 28.667 -78.334 43 -101.001 43
c-38 0 -93.667 -45.667 -167 -137c-28 -39.333 -56.667 -72.833 -86 -100.5s-53.333 -41.5 -72 -41.5c-11.333 0 -22.333 2.33301 -33 7c-19.333 6 -43.333 18 -72 36l-30 17c-147.333 79.333 -272.5 169.166 -375.5 269.499s-194.5 221.5 -274.5 363.5
c-1.33301 1.33301 -6.66602 11.333 -15.999 30c-16 21.333 -25 33 -27 35c-12 32 -18 54.667 -18 68c0 32 47.667 83 143 153c38 26.667 71.167 55.667 99.5 87s42.5 57 42.5 77c0 16 -3.66699 30.333 -11 43c-6.66699 17.333 -27 48.666 -61 94
c-22.667 34 -56.667 93.667 -102 179c-14 22.667 -30.667 51.334 -50 86c-38.667 73.333 -66.334 112.666 -83.001 118c-2.66699 0 -7.66699 0.333008 -15 1s-13.333 1 -18 1c-30 0 -68.167 -4.66699 -114.5 -14s-82.5 -19.666 -108.5 -31
c-35.333 -14 -72.166 -46.833 -110.499 -98.5s-70.833 -112.667 -97.5 -183s-40 -135.5 -40 -195.5z" />
    <glyph glyph-name="g" unicode="g" 
d="M770 1896c0 -106.667 15.6699 -193.333 47.0029 -260l526 -1110c14.667 -31.333 36.5 -56.166 65.5 -74.499s61.167 -27.5 96.5 -27.5s68 9.16699 98 27.5s52.667 43.166 68 74.499l522 1110c32 68 48 154.667 48 260c0 100 -19.5 195.333 -58.5 286
s-91.333 168.834 -157 234.5c-65.667 65.667 -143.834 118 -234.501 157s-186 58.5 -286 58.5s-195.333 -19.5 -286 -58.5s-168.834 -91.333 -234.501 -157s-117.834 -143.834 -156.501 -234.5c-38.667 -90.667 -58 -186 -58 -286zM1139 1896
c0 100.667 35.668 187.001 107.001 259.001s157.666 108 258.999 108s188.166 -36 260.499 -108s108.5 -158.333 108.5 -259c0 -102.667 -36.333 -189.334 -109 -260.001c-71.333 -73.333 -158 -110 -260 -110c-101.333 0 -187.666 36 -258.999 108s-107 159.333 -107 262z
" />
    <glyph glyph-name="h" unicode="h" 
d="M268 688c0 -14.667 7.00195 -27.0059 21.002 -37.0059c13.333 -11.333 52.333 -33.666 117 -66.999c212.667 -110.667 438.334 -166 677.001 -166c296.667 0 564.334 75.667 803.001 227c114.667 73.333 216.5 161.333 305.5 264s160 209.667 213 321
s92.5 223.333 118.5 336c24.667 107.333 37 211.333 37 312v16v43c102 76.667 182.667 162.667 242 258.001c5.33301 10.667 8 19 8 25c0 11.333 -4.33301 21.333 -13 30s-18.667 13 -30 13c-8 0 -19 -2.66699 -33 -8c-54 -20.667 -87.333 -33 -100 -37
c23.333 26.667 47.166 61.834 71.5 105.5c24.333 43.667 36.5 75.5 36.5 95.5c0 12.667 -4.33301 23.334 -13 32c-8.66699 8.66699 -19.334 13 -32.001 13c-5.33301 0 -12 -2.66699 -20 -8c-104 -56 -199 -93 -285 -111c-108 104 -235 156 -381 156
c-99.333 0 -191.166 -24.5 -275.499 -73.5s-151 -115.667 -200 -200s-73.5 -176.166 -73.5 -275.499c0 -26 2 -48 6 -66c-148.667 12.667 -292 48.834 -430 108.501s-262 139.5 -372 239.5c-34.667 30.667 -84.667 83.334 -150 158.001c-10.667 10.667 -23 16 -37 16
c-12.667 0 -24.334 -7.33301 -35.001 -22c-22.667 -34 -40.5 -76.333 -53.5 -127s-19.5 -100 -19.5 -148c0 -134.667 41.667 -250.667 125 -348c-12 6 -25.667 12.333 -41 19c-24.667 10.667 -40.334 16 -47.001 16c-14.667 0 -27.334 -4.83301 -38.001 -14.5
s-16 -21.167 -16 -34.5c0 -94 23.667 -182.667 71 -266s111.666 -149.666 192.999 -198.999c-5.33301 0 -10.666 0.666992 -15.999 2s-11.333 2 -18 2c-11.333 0 -21.333 -4.33301 -30 -13s-13 -18 -13 -28c0 -1.33301 1.33301 -6 4 -14
c29.333 -92 79.166 -170.5 149.499 -235.5s152.166 -108.167 245.499 -129.5c-157.333 -96.667 -326.666 -145 -507.999 -145c-4.66699 0 -25 1.33301 -61 4s-56 4 -60 4c-11.333 0 -21.333 -4.33301 -30 -13s-13 -18.667 -13 -30z" />
    <glyph glyph-name="i" unicode="i" 
d="M487 983c0 -88 5.00098 -221.001 15.001 -399.001c6 -87.333 36.667 -158.166 92 -212.499s127 -83.833 215 -88.5c159.333 -8.66699 405.666 -13 738.999 -13c334 0 580.667 4.33301 740 13c86 4 157 34 213 90c18.667 18.667 36.334 45.334 53.001 80.001
c25.333 65.333 40.333 142.333 45 231c5.33301 70.667 8 160 8 268v31c0 99.333 -4 231 -12 395c-7.33301 87.333 -38.833 158.666 -94.5 213.999s-126.5 85 -212.5 89c-230 10 -476.667 15 -740 15c-268 0 -514.333 -5 -739 -15c-84.667 -4 -156.334 -33.333 -215.001 -88
c-20 -20 -37 -50.667 -51 -92c-28 -76.667 -44.333 -164 -49 -262c-4.66699 -94 -7 -179.333 -7 -256zM653.001 1327v137h443v-137h-150v-799h-145v799h-148zM811.001 2808l116.999 -375.001c6 -20.667 12.667 -41 20 -61c20 -54 31.667 -97 35 -129v-369h145v387
c2 5.33301 3.66699 11.333 5 18c0.666992 2.66699 2.16699 7.66699 4.5 15l8 24.5l9.5 28.5c16.667 54.667 26.334 87.334 29.001 98.001l112 363h-145l-88 -373h-10l-95 373h-147zM1096 634.998l-0.000976562 582h129v-529c0 -31.333 10.667 -47 32 -47c18 0 44 17 78 51
v525h127v-689h-127v76c-49.333 -57.333 -99.666 -86 -150.999 -86c-58.667 0 -88 39 -88 117zM1290 2046c0 -56.667 17 -102.167 51 -136.5s79.333 -51.5 136 -51.5c59.333 0 105.166 16.5 137.499 49.5s48.5 79.167 48.5 138.5v354c0 54 -16.667 97.5 -50 130.5
s-76.666 49.5 -129.999 49.5c-58 0 -104.667 -15.833 -140 -47.5s-53 -73.834 -53 -126.5v-360zM1423 2030v385c0 13.333 5.33301 24.833 16 34.5s23.334 14.5 38.001 14.5c15.333 0 28.666 -5.33301 39.999 -16s17 -23.334 17 -38v-374c0 -41.333 -19 -62 -57 -62
c-36 0 -54 18.667 -54 56zM1587 527.998v936h129v-303c34 44 72.333 66 115 66c83.333 0 125 -58 125 -174v-383c0 -101.333 -39 -152 -117 -152c-48.667 0 -89.667 20.667 -123 62v-52h-129zM1716 658.998c16 -22.667 36.668 -34 62.001 -34c32.667 0 49 19.667 49 59v365
c0 46 -18.333 69 -55 69c-18.667 0 -37.334 -9.33301 -56.001 -28v-431zM1774 1980c0 -77.333 29.333 -116 88 -116c52 0 101.667 28.667 149 86v-76h129v688h-129v-522c-28 -34 -53.333 -51 -76 -51c-21.333 0 -32 15.667 -32 47v526h-129v-582zM2054 720.998v313
c0 60 17.667 108.5 53 145.5s82 55.5 140 55.5c61.333 0 107.333 -17.333 138 -52s46 -84.334 46 -149.001v-178h-244v-129c0 -65.333 18.667 -98 56 -98c30 0 47 13 51 39l4 16v16c2.66699 5.33301 4 19 4 41c-2.66699 16 -4 27 -4 33h133v-53
c0 -142 -63.333 -213 -190 -213c-60.667 0 -107 18.833 -139 56.5s-48 89.834 -48 156.501zM2187 964.998h111v73c0 50.667 -18.333 76 -55 76c-37.333 0 -56 -25.333 -56 -76v-73z" />
    <glyph glyph-name="j" unicode="j" 
d="M1006 614c0 -18 6.66699 -33.667 20 -47l102 -102c14 -14 30 -21 48 -21c17.333 0 33 7 47 21l954 954c14 14 21 29.667 21 47s-7 33 -21 47l-954 955c-13.333 13.333 -29 20 -47 20c-18.667 0 -34.667 -6.66699 -48 -20l-102 -103c-13.333 -13.333 -20 -29 -20 -47
s6.66699 -33.667 20 -47l805 -805l-805 -804c-13.333 -13.333 -20 -29.333 -20 -48z" />
    <glyph glyph-name="k" unicode="k" 
d="M496 1847c0 -18 6.66699 -33.667 20 -47l954 -954c14 -14 30 -21 48 -21c17.333 0 33 7 47 21l954 954c14 14 21 29.667 21 47s-7 33 -21 47l-102 103c-13.333 13.333 -29 20 -47 20c-18.667 0 -34.667 -6.66699 -48 -20l-804 -805l-805 805
c-13.333 13.333 -29 20 -47 20c-18.667 0 -34.667 -6.66699 -48 -20l-102 -103c-13.333 -13.333 -20 -29 -20 -47z" />
    <glyph glyph-name="l" unicode="l" 
d="M496 995c0 -18 6.66699 -33.667 20 -47l102 -102c14 -14 30 -21 48 -21c17.333 0 33 7 47 21l805 805l804 -805c14 -14 30 -21 48 -21c17.333 0 33 7 47 21l102 102c14 14 21 29.667 21 47s-7 33 -21 47l-954 955c-13.333 13.333 -29 20 -47 20
c-18.667 0 -34.667 -6.66699 -48 -20l-954 -955c-13.333 -13.333 -20 -29 -20 -47z" />
    <glyph glyph-name="m" unicode="m" 
d="M633 600h536l1069 1071l-534 535l-1071 -1071v-535zM799 930v137l116 117l304 -301l-119 -117h-139v164h-162zM1016 1260c0 6 3.33301 13.333 10 22l696 696c6 6 13.667 9 23 9c19.333 0 29 -9 29 -27c0 -8 -3.66699 -15.667 -11 -23l-696 -698
c-5.33301 -5.33301 -13 -8 -23 -8c-18.667 0 -28 9.66699 -28 29zM1786 2290l534 -535l213 211c33.333 33.333 50 72.333 50 117c0 42.667 -16.667 81.667 -50 117l-301 301c-34.667 32.667 -73.334 49 -116 49c-45.333 0 -84.333 -16.333 -117 -49z" />
    <glyph glyph-name="n" unicode="n" 
d="M1223 1049c0 -19.333 6.66699 -35.8301 20 -49.4971s29.666 -20.5 48.999 -20.5s35.666 6.66699 48.999 20l490 490c13.333 13.333 20 29.666 20 48.999s-6.66699 35.666 -20 48.999l-490 490c-13.333 13.333 -29.666 20 -48.999 20s-35.666 -6.83301 -48.999 -20.5
s-20 -29.834 -20 -48.501v-979z" />
    <glyph glyph-name="o" unicode="o" 
d="M1223 1538c0 -19.333 6.66699 -35.6689 20 -49.002l490 -490c13.333 -13.333 29.666 -20 48.999 -20s35.666 6.83301 48.999 20.5s20 30.167 20 49.5v979c0 18.667 -6.66699 34.834 -20 48.501s-29.666 20.5 -48.999 20.5s-35.666 -6.66699 -48.999 -20l-490 -490
c-13.333 -13.333 -20 -29.666 -20 -48.999z" />
    <glyph glyph-name="p" unicode="p" 
d="M422 1620c0 -120.667 23.501 -236.833 70.501 -348.5s112.167 -208.5 195.5 -290.5c82.667 -82 179.667 -146.5 291 -193.5s227.333 -70.5 348 -70.5c188.667 0 359.334 53.333 512.001 160l442 -441c31.333 -31.333 69.666 -47 114.999 -47c44 0 82.333 16.333 115 49
s49 71 49 115c0 45.333 -15.667 83.666 -47 114.999l-440 440c104.667 154.667 157 325.334 157 512.001c0 122.667 -23.167 240 -69.5 352s-110.5 209 -192.5 291c-83.333 82.667 -180.833 147.334 -292.5 194c-111.667 46.667 -227.834 70 -348.501 70
c-121.333 0 -237.5 -23.333 -348.5 -70s-207.833 -111.334 -290.5 -194c-83.333 -82 -148.5 -179 -195.5 -291s-70.5 -229.333 -70.5 -352zM750.001 1620c0 104 25.833 200.333 77.5 289s121.834 159 210.501 211s185 78 289 78s200.167 -26 288.5 -78
s158.333 -122.333 210 -211s77.5 -185 77.5 -289c0 -156.667 -56 -291 -168 -403c-113.333 -113.333 -249.333 -170 -408 -170c-104 0 -200.333 25.667 -289 77s-158.834 121 -210.501 209s-77.5 183.667 -77.5 287z" />
    <glyph glyph-name="q" unicode="q" 
d="M326 2075c0 -116.667 41 -216.998 123 -300.998l307 -306c81.333 -83.333 181 -125 299 -125c119.333 0 221 44 305 132l129 -132c-86 -84 -129 -186.333 -129 -307c0 -118 41 -217 123 -297l303 -305c81.333 -83.333 181.666 -125 300.999 -125c118 0 217 41 297 123
l217 213c83.333 81.333 125 181 125 299c0 117.333 -41.667 217.666 -125 300.999l-305 305c-81.333 83.333 -181 125 -299 125c-119.333 0 -221 -43 -305 -129l-131 129c87.333 83.333 131 185.666 131 306.999c0 116 -41 215 -123 297l-303 306
c-81.333 83.333 -181.666 125 -300.999 125c-118 0 -217 -41 -297 -123l-217 -213c-83.333 -79.333 -125 -179 -125 -299zM606 2075c0 36.667 14.332 69.334 42.999 98l215 215c29.333 27.333 63 41 101 41s71.333 -14.333 100 -43l303 -303c27.333 -27.333 41 -61 41 -101
c0 -41.333 -16.333 -77.333 -49 -108c-0.666992 0.666992 -2 2.16699 -4 4.5l-9 10.5l-12 14c-27.333 26 -47.666 43.667 -60.999 53c-20 16 -46.667 24 -80 24c-38 0 -70.667 -13.667 -98 -41s-41 -60 -41 -98c0 -33.333 8 -60 24 -80c8.66699 -12 26.667 -31.667 54 -59
l13.5 -13.5l10.5 -10.5l4 -3c-28 -30 -63.333 -45 -106 -45c-41.333 0 -75 13 -101 39l-305 307c-28.667 26.667 -43 59.667 -43 99zM1642 1036c0 41.333 16.6689 77.666 50.002 108.999c1.33301 -1.33301 10 -11 26 -29c21.333 -23.333 41.333 -40.333 60 -51
c24.667 -18 49.667 -27 75 -27c40 0 74 14 102 42s42 62 42 102c0 24 -8.33301 49 -25 75c-12 18 -29.667 38.667 -53 62c-15.333 12 -25 20 -29 24c28 32 63.667 48 107 48c39.333 0 72.666 -13.667 99.999 -41l305 -303c27.333 -29.333 41 -63.666 41 -102.999
c0 -36 -13.667 -68.667 -41 -98l-217 -215c-32.667 -26 -65.334 -39 -98.001 -39c-36 0 -70 13.667 -102 41l-302 305c-27.333 27.333 -41 60 -41 98z" />
    <glyph glyph-name="r" unicode="r" 
d="M279 774c0 -61.333 21.833 -113.833 65.5 -157.5s96.167 -65.5 157.5 -65.5h2046c61.333 0 113.833 21.833 157.5 65.5s65.5 96.167 65.5 157.5v1512c0 61.333 -21.833 113.833 -65.5 157.5s-96.167 65.5 -157.5 65.5h-2046c-61.333 0 -113.833 -21.833 -157.5 -65.5
s-65.5 -96.167 -65.5 -157.5v-1512zM457 774l0.000976562 1157c0 11.333 4.33301 21.333 13 30s19.334 13 32.001 13h2046c12.667 0 23.334 -4.33301 32 -13c8.66699 -8.66699 13 -18.667 13 -30v-1157c0 -12.667 -4.33301 -23.334 -13 -32.001s-19.334 -13 -32.001 -13
h-2046c-12.667 0 -23.334 4.33301 -32.001 13s-13 19.334 -13 32.001zM635.001 950c0 -11.333 4.33301 -21.333 13 -30s18.667 -13 30 -13h90c11.333 0 21.666 4.33301 30.999 13s14 18.667 14 30v90c0 11.333 -4.66699 21.666 -14 30.999s-19.666 14 -30.999 14h-90
c-11.333 0 -21.333 -4.66699 -30 -14s-13 -19.666 -13 -30.999v-90zM635.001 1307c0 -11.333 4.33301 -21.333 13 -30s18.667 -13 30 -13h90c11.333 0 21.666 4.33301 30.999 13s14 18.667 14 30v90c0 11.333 -4.66699 21.333 -14 30s-19.666 13 -30.999 13h-90
c-11.333 0 -21.333 -4.33301 -30 -13s-13 -18.667 -13 -30v-90zM635.001 1663c0 -11.333 4.33301 -21.666 13 -30.999s18.667 -14 30 -14h90c11.333 0 21.666 4.66699 30.999 14s14 19.666 14 30.999v90c0 11.333 -4.66699 21.333 -14 30s-19.666 13 -30.999 13h-90
c-11.333 0 -21.333 -4.33301 -30 -13s-13 -18.667 -13 -30v-90zM991.001 950c0 -11.333 4.33203 -21.334 12.999 -30.001s18.667 -13 30 -13h1336c12.667 0 23.334 4.33301 32.001 13s13 18.667 13 30v90c0 12 -4.5 22.5 -13.5 31.5s-19.5 13.5 -31.5 13.5h-1336
c-11.333 0 -21.333 -4.66699 -30 -14s-13 -19.666 -13 -30.999v-90zM991 1307c0 -11.333 4.33301 -21.333 13 -30s18.667 -13 30 -13h1336c12.667 0 23.334 4.33301 32 13c8.66699 8.66699 13 18.667 13 30v90c0 11.333 -4.33301 21.333 -13 30s-19.334 13 -32 13h-1336
c-11.333 0 -21.333 -4.33301 -30 -13s-13 -18.667 -13 -30v-90zM991 1663c0 -11.333 4.33301 -21.667 13 -31s18.667 -14 30 -14h1336c12 0 22.5 4.5 31.5 13.5s13.5 19.5 13.5 31.5v90c0 11.333 -4.33301 21.333 -13 30s-19.334 13 -32 13h-1336
c-11.333 0 -21.333 -4.33301 -30 -13s-13 -18.667 -13 -30v-90z" />
    <glyph glyph-name="s" unicode="s" 
d="M778 498c0 -68 25 -126.999 75 -176.999s109 -75 177 -75h1006c67.333 0 126.166 25.167 176.5 75.5c50.333 50.333 75.5 109.166 75.5 176.499v2013c0 67.333 -25.167 126.166 -75.5 176.5c-50.333 50.333 -109.166 75.5 -176.5 75.5h-1006c-68 0 -127 -25 -177 -75
s-75 -109 -75 -177v-2013zM967 813.001l0.000976562 1382c0 17.333 6.16699 32.333 18.5 45s27.166 19 44.499 19h1006c16.667 0 31.334 -6.33301 44 -19c12.667 -12.667 19 -27.667 19 -45v-1382c0 -17.333 -6.33301 -32.166 -19 -44.499s-27.334 -18.5 -44.001 -18.5
h-1006c-17.333 0 -32.166 6.16699 -44.499 18.5s-18.5 27.166 -18.5 44.499zM1343 2478c0 22 11.001 33 33.001 33h314c11.333 0 19.166 -2.5 23.499 -7.5s6.5 -13.5 6.5 -25.5c0 -20.667 -10 -31 -30 -31h-314c-22 0 -33 10.333 -33 31zM1376 498.001
c0 43.333 15.333 80.333 46 111s67.334 46 110.001 46c44 0 81.333 -15.333 112 -46s46 -67.667 46 -111c0 -42 -15 -79 -45 -111c-31.333 -31.333 -69 -47 -113 -47c-42.667 0 -79.334 15.5 -110.001 46.5s-46 68.167 -46 111.5z" />
    <glyph glyph-name="t" unicode="t" 
d="M360 1442c0 -25.333 9.5 -47.333 28.5 -66s41.167 -28 66.5 -28h213c37.333 -160 114 -298.167 230 -414.5s254.333 -192.5 415 -228.5v-213c0 -26.667 9.33301 -49.5 28 -68.5s40.667 -28.5 66 -28.5h190c26 0 48.667 9.66699 68 29s29 42 29 68v213
c159.333 36 297 112.167 413 228.5s192.667 254.5 230 414.5h213c25.333 0 47.333 9.33301 66 28s28 40.667 28 66v190c0 26.667 -9.33301 49.5 -28 68.5s-40.667 28.5 -66 28.5h-213c-37.333 160 -114 298.167 -230 414.5s-253.667 192.5 -413 228.5v213
c0 26 -9.66699 48.5 -29 67.5s-42 28.5 -68 28.5h-190c-25.333 0 -47.333 -9.33301 -66 -28s-28 -41.334 -28 -68v-213c-160.667 -36 -299 -112.167 -415 -228.5s-192.667 -254.5 -230 -414.5h-213c-25.333 0 -47.5 -9.5 -66.5 -28.5s-28.5 -41.833 -28.5 -68.5v-190z
M864 1348h161.999c26.667 0 49.334 9.33301 68.001 28s28 40.667 28 66v190c0 26.667 -9.33301 49.5 -28 68.5s-41.334 28.5 -68.001 28.5h-162c31.333 106.667 87 199.667 167 279s174 135.666 282 169v-164c0 -25.333 9.33301 -47.333 28 -66s40.667 -28 66 -28h190
c26 0 48.667 9.33301 68 28s29 40.667 29 66v164c107.333 -33.333 200.666 -89.666 279.999 -169c79.333 -79.333 134.666 -172.333 166 -279h-162c-25.333 0 -47.333 -9.5 -66 -28.5s-28 -41.833 -28 -68.5v-190c0 -25.333 9.33301 -47.333 28 -66s40.667 -28 66 -28h162
c-31.333 -106.667 -86.666 -199.834 -165.999 -279.501s-172.666 -136.167 -279.999 -169.5v164c0 25.333 -9.66699 47.333 -29 66s-42 28 -68 28h-190c-25.333 0 -47.333 -9.33301 -66 -28s-28 -40.667 -28 -66v-164c-108 33.333 -202 89.833 -282 169.5
s-135.667 172.834 -167 279.501z" />
    <glyph glyph-name="u" unicode="u" 
d="M1022 1247c0 -19.333 7.16797 -36 21.501 -50s31.166 -21 50.499 -21h1003c20.667 0 38.167 7 52.5 21s21.5 30.667 21.5 50c0 16.667 -7.66699 33.667 -23 51l-501 502c-14 14 -31.333 21 -52 21c-18.667 0 -35 -7 -49 -21l-502 -502
c-14.667 -16.667 -22 -33.667 -22 -51z" />
    <glyph glyph-name="v" unicode="v" 
d="M274 1520c0 166 32.333 324.5 97 475.5s151.5 281 260.5 390s239 195.833 390 260.5s309.5 97 475.5 97s324.5 -32.333 475.5 -97s281 -151.5 390 -260.5s195.833 -239 260.5 -390s97 -309.5 97 -475.5c0 -110.667 -14.667 -218.834 -44 -324.501
s-70.333 -203.167 -123 -292.5s-116.667 -171.666 -192 -246.999s-157.666 -139.333 -246.999 -192s-186.833 -93.667 -292.5 -123s-213.834 -44 -324.501 -44s-218.834 14.667 -324.501 44s-203.167 70.333 -292.5 123s-171.666 116.667 -246.999 192
s-139.333 157.666 -192 246.999s-93.667 186.833 -123 292.5s-44 213.834 -44 324.501zM819 1577c0 -30 1.66504 -59.001 4.99805 -87.001c4 -39.333 11.667 -79.333 23 -120l4 -16c20 -70.667 49.667 -136.667 89 -198c25.333 -39.333 55 -76.333 89 -111
c85.333 -87.333 185.666 -147.333 300.999 -180c37.333 -10.667 72.333 -18 105 -22c25.333 -3.33301 48.333 -5 69 -5h13c58 0 114.667 8 170 24c85.333 23.333 163 62.333 233 117c10 7.33301 28.667 24 56 50c48.667 48.667 88.334 103 119.001 163
c47.333 93.333 71 192.333 71 297v24c-2 62 -11.667 121 -29 177c-20 66.667 -44.333 119 -73 157c-58 77.333 -128.333 133 -211 167c-68.667 28.667 -149.334 52.667 -242.001 72.001l-6 1.5c-1.33301 0.333008 -3.33301 0.666016 -6 1
c-2.66699 0.333008 -5 0.833008 -7 1.5l-2 16c0 118 43.333 227.667 130 329s187.667 164.333 303 189c-7.33301 3.33301 -15.666 5.33301 -24.999 6c-15.333 2.66699 -34.333 4 -57 4c-27.333 0 -59.666 -2 -96.999 -6c-50.667 -5.33301 -102.334 -14.666 -155.001 -28
c-37.333 -9.33301 -58.333 -14.666 -63 -16c-35.333 -10.667 -68.666 -22 -99.999 -34c-127.333 -49.333 -239 -115 -335 -197c-81.333 -68.667 -152.166 -149.834 -212.499 -243.5c-60.333 -93.667 -104.166 -195.167 -131.499 -304.5
c-14.667 -57.333 -23.334 -116 -26.001 -176l-1 -13c-0.666992 -13.333 -1 -26.333 -1 -39z" />
    <glyph glyph-name="w" unicode="w" 
d="M117 1194v957.999c0 69.333 24.5 128.5 73.5 177.5s108.167 73.5 177.5 73.5h2310c69.333 0 128.5 -24.5 177.5 -73.5s73.5 -108.167 73.5 -177.5v-1034c0 -69.333 -24.667 -128.666 -74 -177.999s-108.333 -74 -177 -74h-1763l-447 -517v517h-100
c-44 0 -85.833 17.833 -125.5 53.5s-70.5 78.667 -92.5 129s-33 98.833 -33 145.5zM432 1565c7.33301 -96 39.3301 -168.334 95.9971 -217.001c53.333 -46 128 -69 224 -69c64.667 0 119.667 9.33301 165 28c45.333 19.333 81 49 107 89c25.333 39.333 38 81.666 38 126.999
c0 48.667 -10.667 90.334 -32 125.001c-22 34.667 -51.333 61.667 -88 81c-36 19.333 -90 37.333 -162 54c-69.333 16.667 -111.666 31.334 -126.999 44.001c-10 9.33301 -15 19 -15 29c0 12 5.33301 22 16 30c20.667 14.667 50 22 88 22s65 -6.66699 81 -20
c19.333 -15.333 31.333 -43.666 36 -84.999l182 8v9c0 77.333 -26.333 138.333 -79 183c-49.333 43.333 -122 65 -218 65c-60 0 -110.333 -9 -151 -27c-43.333 -18.667 -76.333 -45.334 -99 -80.001c-22.667 -35.333 -34 -73.333 -34 -114
c0 -62.667 24.333 -116.334 73 -161.001c32.667 -30 90.334 -55.333 173.001 -76c64.667 -16 103.334 -26.333 116.001 -31c22 -8 36.667 -16.333 44 -25c7.33301 -8 11 -18.667 11 -32c0 -21.333 -9.66699 -39.666 -29 -54.999c-20.667 -16.667 -52 -25 -94 -25
c-40.667 0 -72 9.66699 -94 29c-25.333 21.333 -41.333 58.333 -48 111zM1133 1292h175v434l109 -434h171l110 435v-435h174v763h-254l-115 -438l-117 438h-253v-763zM1985 1565c7.33301 -96 39.666 -168.67 96.999 -218.003c52.667 -45.333 127 -68 223 -68
c65.333 0 120.666 9.33301 166 28c45.333 19.333 80.666 48.666 106 87.999c25.333 41.333 38 84 38 128c0 48.667 -10.667 90.334 -32 125.001c-22.667 35.333 -51.667 62.333 -87 81s-89.666 36.667 -163 54c-68 16.667 -110 31.334 -126 44.001
c-10 9.33301 -15 19 -15 29c0 12.667 5 22.667 15 30c20.667 14.667 50.334 22 89 22c37.333 0 64 -6.66699 80 -20c19.333 -15.333 31.333 -43.666 36 -84.999l182 8v9c0 77.333 -26.333 138.333 -79 183c-49.333 43.333 -122 65 -218 65c-59.333 0 -109.333 -9 -150 -27
c-43.333 -18.667 -76.333 -45.334 -99 -80.001c-23.333 -36 -35 -74.333 -35 -115c0 -62 24.333 -115.333 73 -160c32.667 -30 90.667 -55.333 174 -76c62.667 -15.333 101 -25.666 115 -30.999c22.667 -8 37.667 -16.667 45 -26c6.66699 -7.33301 10 -17.666 10 -30.999
c0 -21.333 -9.66699 -39.666 -29 -54.999c-20.667 -16.667 -52 -25 -94 -25c-41.333 0 -72.666 9.33301 -93.999 28c-25.333 21.333 -41.333 58.666 -48 111.999z" />
    <glyph glyph-name="x" unicode="x" 
d="M229 709c0 -104 37.333 -193.333 112 -268s164 -112 268 -112h1853c104 0 193.167 37.333 267.5 112s111.5 164 111.5 268v1588c0 104 -37.167 193.333 -111.5 268s-163.5 112 -267.5 112h-1853c-104 0 -193.333 -37.333 -268 -112s-112 -164 -112 -268v-1588zM374 709
v1588c0 64.667 23 120 69 166s101.333 69 166 69h1853c64.667 0 119.834 -23 165.5 -69c45.667 -46 68.5 -101.333 68.5 -166v-1588c0 -64.667 -22.833 -119.834 -68.5 -165.501s-100.834 -68.5 -165.5 -68.5h-1853c-64.667 0 -120 22.833 -166 68.5
s-69 100.834 -69 165.501zM599 1429c0 -46.667 16.667 -86.667 50 -120s73.333 -50 120 -50s86.5 16.5 119.5 49.5s49.5 73.167 49.5 120.5s-16.333 87.333 -49 120s-72.667 49 -120 49s-87.333 -16.333 -120 -49c-33.333 -33.333 -50 -73.333 -50 -120zM599 1917
c0 46.667 16.667 86.667 50 120c32.667 32.667 72.667 49 120 49s87.333 -16.333 120 -49s49 -72.667 49 -120s-16.5 -87.5 -49.5 -120.5s-72.833 -49.5 -119.5 -49.5c-47.333 0 -87.5 16.5 -120.5 49.5s-49.5 73.167 -49.5 120.5zM693 1918
c0 -21.333 7.66699 -38.998 23 -52.998c14 -15.333 31.667 -23 53 -23c20.667 0 38.334 7.33301 53.001 22s22 32.667 22 54s-7.33301 39.166 -22 53.499s-32.334 21.5 -53.001 21.5c-21.333 0 -39.333 -7.33301 -54 -22s-22 -32.334 -22 -53.001zM1230 1367h1168v173h-1168
v-173zM1230 1839h1168v174h-1168v-174zM1532 838.002c0 -17.333 7 -33.335 21 -48.002s29.667 -22 47 -22h729c17.333 0 33.333 7.33301 48 22s22 30.667 22 48v139c0 16.667 -7.33301 31.834 -22 45.501s-30.667 20.5 -48 20.5h-729c-17.333 0 -33 -6.66699 -47 -20
s-21 -28.666 -21 -45.999v-139z" />
    <glyph glyph-name="z" unicode="z" 
d="M467 443v727c0 11.333 3.83301 20.833 11.5 28.5s17.167 11.5 28.5 11.5h243c11.333 0 20.833 -3.83301 28.5 -11.5s11.5 -17.167 11.5 -28.5v-445h1454v445c0 11.333 4 20.833 12 28.5s17.667 11.5 29 11.5h242c11.333 0 21 -3.83301 29 -11.5s12 -17.167 12 -28.5v-727
c0 -11.333 -4 -21 -12 -29s-17.667 -12 -29 -12h-2020c-11.333 0 -20.833 4 -28.5 12s-11.5 17.667 -11.5 29zM911 1656c0 5.33301 1.33301 11 4 17c7.33301 16.667 19.666 25 36.999 25h364v781c0 11.333 3.83301 20.666 11.5 28c7.66699 7.33301 17.167 11 28.5 11h323
c11.333 0 20.833 -3.66699 28.5 -11s11.5 -16.666 11.5 -27.999v-781h364c16.667 0 28.667 -8 36 -24c2.66699 -6.66699 4 -12.667 4 -18c0 -10 -4 -18.667 -12 -26l-567 -567c-6 -6.66699 -15 -10 -27 -10c-11.333 0 -20.666 4 -27.999 12l-566 566
c-8 7.33301 -12 15.666 -12 24.999z" />
    <glyph glyph-name="uni2000" unicode="&#x2000;" horiz-adv-x="1424" 
 />
    <glyph glyph-name="uni2001" unicode="&#x2001;" horiz-adv-x="2848" 
 />
    <glyph glyph-name="uni2002" unicode="&#x2002;" horiz-adv-x="1424" 
 />
    <glyph glyph-name="uni2003" unicode="&#x2003;" horiz-adv-x="2848" 
 />
    <glyph glyph-name="uni2004" unicode="&#x2004;" horiz-adv-x="949" 
 />
    <glyph glyph-name="uni2005" unicode="&#x2005;" horiz-adv-x="712" 
 />
    <glyph glyph-name="uni2006" unicode="&#x2006;" horiz-adv-x="474" 
 />
    <glyph glyph-name="uni2007" unicode="&#x2007;" horiz-adv-x="474" 
 />
    <glyph glyph-name="uni2008" unicode="&#x2008;" horiz-adv-x="356" 
 />
    <glyph glyph-name="uni2009" unicode="&#x2009;" horiz-adv-x="569" 
 />
    <glyph glyph-name="uni200A" unicode="&#x200a;" horiz-adv-x="158" 
 />
    <glyph glyph-name="uni202F" unicode="&#x202f;" horiz-adv-x="569" 
 />
    <glyph glyph-name="uni205F" unicode="&#x205f;" horiz-adv-x="712" 
 />
    <glyph glyph-name="uni25FC" unicode="&#x25fc;" horiz-adv-x="2675" 
d="M0 0v2675h2675v-2675h-2675z" />
  </font>
</defs>
</svg>
